<?xml version="1.0" encoding="utf-8" standalone="no"?>
<!DOCTYPE svg PUBLIC "-//W3C//DTD SVG 1.1//EN"
  "http://www.w3.org/Graphics/SVG/1.1/DTD/svg11.dtd">
<svg xmlns:xlink="http://www.w3.org/1999/xlink" width="1080pt" height="648pt" viewBox="0 0 1080 648" xmlns="http://www.w3.org/2000/svg" version="1.1">
 <metadata>
  <rdf:RDF xmlns:dc="http://purl.org/dc/elements/1.1/" xmlns:cc="http://creativecommons.org/ns#" xmlns:rdf="http://www.w3.org/1999/02/22-rdf-syntax-ns#">
   <cc:Work>
    <dc:type rdf:resource="http://purl.org/dc/dcmitype/StillImage"/>
    <dc:date>2023-04-30T17:34:59.888628</dc:date>
    <dc:format>image/svg+xml</dc:format>
    <dc:creator>
     <cc:Agent>
      <dc:title>Matplotlib v3.5.3, https://matplotlib.org/</dc:title>
     </cc:Agent>
    </dc:creator>
   </cc:Work>
  </rdf:RDF>
 </metadata>
 <defs>
  <style type="text/css">*{stroke-linejoin: round; stroke-linecap: butt}</style>
 </defs>
 <g id="figure_1">
  <g id="patch_1">
   <path d="M 0 648 
L 1080 648 
L 1080 0 
L 0 0 
z
" style="fill: #ffffff"/>
  </g>
  <g id="axes_1">
   <g id="patch_2">
    <path d="M 135 576.72 
L 972 576.72 
L 972 77.76 
L 135 77.76 
z
" style="fill: #ffffff"/>
   </g>
   <g id="patch_3">
    <path d="M 135 554.04 
L 138.598839 554.04 
L 138.598839 534.737872 
L 135 534.737872 
z
" clip-path="url(#p30a31c182f)" style="fill: #00008b"/>
   </g>
   <g id="patch_4">
    <path d="M 135 529.91234 
L 163.790713 529.91234 
L 163.790713 510.610213 
L 135 510.610213 
z
" clip-path="url(#p30a31c182f)" style="fill: #00008b"/>
   </g>
   <g id="patch_5">
    <path d="M 135 505.784681 
L 178.186069 505.784681 
L 178.186069 486.482553 
L 135 486.482553 
z
" clip-path="url(#p30a31c182f)" style="fill: #00008b"/>
   </g>
   <g id="patch_6">
    <path d="M 135 481.657021 
L 230.369236 481.657021 
L 230.369236 462.354894 
L 135 462.354894 
z
" clip-path="url(#p30a31c182f)" style="fill: #00008b"/>
   </g>
   <g id="patch_7">
    <path d="M 135 457.529362 
L 251.96227 457.529362 
L 251.96227 438.227234 
L 135 438.227234 
z
" clip-path="url(#p30a31c182f)" style="fill: #00008b"/>
   </g>
   <g id="patch_8">
    <path d="M 135 433.401702 
L 253.76169 433.401702 
L 253.76169 414.099574 
L 135 414.099574 
z
" clip-path="url(#p30a31c182f)" style="fill: #00008b"/>
   </g>
   <g id="patch_9">
    <path d="M 135 409.274043 
L 257.360529 409.274043 
L 257.360529 389.971915 
L 135 389.971915 
z
" clip-path="url(#p30a31c182f)" style="fill: #00008b"/>
   </g>
   <g id="patch_10">
    <path d="M 135 385.146383 
L 260.959368 385.146383 
L 260.959368 365.844255 
L 135 365.844255 
z
" clip-path="url(#p30a31c182f)" style="fill: #00008b"/>
   </g>
   <g id="patch_11">
    <path d="M 135 361.018723 
L 269.956466 361.018723 
L 269.956466 341.716596 
L 135 341.716596 
z
" clip-path="url(#p30a31c182f)" style="fill: #00008b"/>
   </g>
   <g id="patch_12">
    <path d="M 135 336.891064 
L 277.154144 336.891064 
L 277.154144 317.588936 
L 135 317.588936 
z
" clip-path="url(#p30a31c182f)" style="fill: #00008b"/>
   </g>
   <g id="patch_13">
    <path d="M 135 312.763404 
L 280.752983 312.763404 
L 280.752983 293.461277 
L 135 293.461277 
z
" clip-path="url(#p30a31c182f)" style="fill: #00008b"/>
   </g>
   <g id="patch_14">
    <path d="M 135 288.635745 
L 322.139632 288.635745 
L 322.139632 269.333617 
L 135 269.333617 
z
" clip-path="url(#p30a31c182f)" style="fill: #00008b"/>
   </g>
   <g id="patch_15">
    <path d="M 135 264.508085 
L 350.930345 264.508085 
L 350.930345 245.205957 
L 135 245.205957 
z
" clip-path="url(#p30a31c182f)" style="fill: #00008b"/>
   </g>
   <g id="patch_16">
    <path d="M 135 240.380426 
L 354.529184 240.380426 
L 354.529184 221.078298 
L 135 221.078298 
z
" clip-path="url(#p30a31c182f)" style="fill: #00008b"/>
   </g>
   <g id="patch_17">
    <path d="M 135 216.252766 
L 394.116414 216.252766 
L 394.116414 196.950638 
L 135 196.950638 
z
" clip-path="url(#p30a31c182f)" style="fill: #00008b"/>
   </g>
   <g id="patch_18">
    <path d="M 135 192.125106 
L 431.904224 192.125106 
L 431.904224 172.822979 
L 135 172.822979 
z
" clip-path="url(#p30a31c182f)" style="fill: #00008b"/>
   </g>
   <g id="patch_19">
    <path d="M 135 167.997447 
L 435.503064 167.997447 
L 435.503064 148.695319 
L 135 148.695319 
z
" clip-path="url(#p30a31c182f)" style="fill: #00008b"/>
   </g>
   <g id="patch_20">
    <path d="M 135 143.869787 
L 451.697839 143.869787 
L 451.697839 124.56766 
L 135 124.56766 
z
" clip-path="url(#p30a31c182f)" style="fill: #00008b"/>
   </g>
   <g id="patch_21">
    <path d="M 135 119.742128 
L 932.142857 119.742128 
L 932.142857 100.44 
L 135 100.44 
z
" clip-path="url(#p30a31c182f)" style="fill: #00008b"/>
   </g>
   <g id="matplotlib.axis_1">
    <g id="xtick_1">
     <g id="line2d_1">
      <defs>
       <path id="mc8350ac2b0" d="M 0 0 
L 0 3.5 
" style="stroke: #000000; stroke-width: 0.8"/>
      </defs>
      <g>
       <use xlink:href="#mc8350ac2b0" x="135" y="576.72" style="stroke: #000000; stroke-width: 0.8"/>
      </g>
     </g>
     <g id="text_1">
      <!-- 0 -->
      <g transform="translate(129.91 595.8775)scale(0.16 -0.16)">
       <defs>
        <path id="DejaVuSans-30" d="M 2034 4250 
Q 1547 4250 1301 3770 
Q 1056 3291 1056 2328 
Q 1056 1369 1301 889 
Q 1547 409 2034 409 
Q 2525 409 2770 889 
Q 3016 1369 3016 2328 
Q 3016 3291 2770 3770 
Q 2525 4250 2034 4250 
z
M 2034 4750 
Q 2819 4750 3233 4129 
Q 3647 3509 3647 2328 
Q 3647 1150 3233 529 
Q 2819 -91 2034 -91 
Q 1250 -91 836 529 
Q 422 1150 422 2328 
Q 422 3509 836 4129 
Q 1250 4750 2034 4750 
z
" transform="scale(0.015625)"/>
       </defs>
       <use xlink:href="#DejaVuSans-30"/>
      </g>
     </g>
    </g>
    <g id="xtick_2">
     <g id="line2d_2">
      <g>
       <use xlink:href="#mc8350ac2b0" x="314.941954" y="576.72" style="stroke: #000000; stroke-width: 0.8"/>
      </g>
     </g>
     <g id="text_2">
      <!-- 100 -->
      <g transform="translate(299.671954 595.8775)scale(0.16 -0.16)">
       <defs>
        <path id="DejaVuSans-31" d="M 794 531 
L 1825 531 
L 1825 4091 
L 703 3866 
L 703 4441 
L 1819 4666 
L 2450 4666 
L 2450 531 
L 3481 531 
L 3481 0 
L 794 0 
L 794 531 
z
" transform="scale(0.015625)"/>
       </defs>
       <use xlink:href="#DejaVuSans-31"/>
       <use xlink:href="#DejaVuSans-30" x="63.623047"/>
       <use xlink:href="#DejaVuSans-30" x="127.246094"/>
      </g>
     </g>
    </g>
    <g id="xtick_3">
     <g id="line2d_3">
      <g>
       <use xlink:href="#mc8350ac2b0" x="494.883908" y="576.72" style="stroke: #000000; stroke-width: 0.8"/>
      </g>
     </g>
     <g id="text_3">
      <!-- 200 -->
      <g transform="translate(479.613908 595.8775)scale(0.16 -0.16)">
       <defs>
        <path id="DejaVuSans-32" d="M 1228 531 
L 3431 531 
L 3431 0 
L 469 0 
L 469 531 
Q 828 903 1448 1529 
Q 2069 2156 2228 2338 
Q 2531 2678 2651 2914 
Q 2772 3150 2772 3378 
Q 2772 3750 2511 3984 
Q 2250 4219 1831 4219 
Q 1534 4219 1204 4116 
Q 875 4013 500 3803 
L 500 4441 
Q 881 4594 1212 4672 
Q 1544 4750 1819 4750 
Q 2544 4750 2975 4387 
Q 3406 4025 3406 3419 
Q 3406 3131 3298 2873 
Q 3191 2616 2906 2266 
Q 2828 2175 2409 1742 
Q 1991 1309 1228 531 
z
" transform="scale(0.015625)"/>
       </defs>
       <use xlink:href="#DejaVuSans-32"/>
       <use xlink:href="#DejaVuSans-30" x="63.623047"/>
       <use xlink:href="#DejaVuSans-30" x="127.246094"/>
      </g>
     </g>
    </g>
    <g id="xtick_4">
     <g id="line2d_4">
      <g>
       <use xlink:href="#mc8350ac2b0" x="674.825863" y="576.72" style="stroke: #000000; stroke-width: 0.8"/>
      </g>
     </g>
     <g id="text_4">
      <!-- 300 -->
      <g transform="translate(659.555863 595.8775)scale(0.16 -0.16)">
       <defs>
        <path id="DejaVuSans-33" d="M 2597 2516 
Q 3050 2419 3304 2112 
Q 3559 1806 3559 1356 
Q 3559 666 3084 287 
Q 2609 -91 1734 -91 
Q 1441 -91 1130 -33 
Q 819 25 488 141 
L 488 750 
Q 750 597 1062 519 
Q 1375 441 1716 441 
Q 2309 441 2620 675 
Q 2931 909 2931 1356 
Q 2931 1769 2642 2001 
Q 2353 2234 1838 2234 
L 1294 2234 
L 1294 2753 
L 1863 2753 
Q 2328 2753 2575 2939 
Q 2822 3125 2822 3475 
Q 2822 3834 2567 4026 
Q 2313 4219 1838 4219 
Q 1578 4219 1281 4162 
Q 984 4106 628 3988 
L 628 4550 
Q 988 4650 1302 4700 
Q 1616 4750 1894 4750 
Q 2613 4750 3031 4423 
Q 3450 4097 3450 3541 
Q 3450 3153 3228 2886 
Q 3006 2619 2597 2516 
z
" transform="scale(0.015625)"/>
       </defs>
       <use xlink:href="#DejaVuSans-33"/>
       <use xlink:href="#DejaVuSans-30" x="63.623047"/>
       <use xlink:href="#DejaVuSans-30" x="127.246094"/>
      </g>
     </g>
    </g>
    <g id="xtick_5">
     <g id="line2d_5">
      <g>
       <use xlink:href="#mc8350ac2b0" x="854.767817" y="576.72" style="stroke: #000000; stroke-width: 0.8"/>
      </g>
     </g>
     <g id="text_5">
      <!-- 400 -->
      <g transform="translate(839.497817 595.8775)scale(0.16 -0.16)">
       <defs>
        <path id="DejaVuSans-34" d="M 2419 4116 
L 825 1625 
L 2419 1625 
L 2419 4116 
z
M 2253 4666 
L 3047 4666 
L 3047 1625 
L 3713 1625 
L 3713 1100 
L 3047 1100 
L 3047 0 
L 2419 0 
L 2419 1100 
L 313 1100 
L 313 1709 
L 2253 4666 
z
" transform="scale(0.015625)"/>
       </defs>
       <use xlink:href="#DejaVuSans-34"/>
       <use xlink:href="#DejaVuSans-30" x="63.623047"/>
       <use xlink:href="#DejaVuSans-30" x="127.246094"/>
      </g>
     </g>
    </g>
    <g id="text_6">
     <!-- Pesos -->
     <g transform="translate(527.977969 616.882187)scale(0.18 -0.18)">
      <defs>
       <path id="DejaVuSans-50" d="M 1259 4147 
L 1259 2394 
L 2053 2394 
Q 2494 2394 2734 2622 
Q 2975 2850 2975 3272 
Q 2975 3691 2734 3919 
Q 2494 4147 2053 4147 
L 1259 4147 
z
M 628 4666 
L 2053 4666 
Q 2838 4666 3239 4311 
Q 3641 3956 3641 3272 
Q 3641 2581 3239 2228 
Q 2838 1875 2053 1875 
L 1259 1875 
L 1259 0 
L 628 0 
L 628 4666 
z
" transform="scale(0.015625)"/>
       <path id="DejaVuSans-65" d="M 3597 1894 
L 3597 1613 
L 953 1613 
Q 991 1019 1311 708 
Q 1631 397 2203 397 
Q 2534 397 2845 478 
Q 3156 559 3463 722 
L 3463 178 
Q 3153 47 2828 -22 
Q 2503 -91 2169 -91 
Q 1331 -91 842 396 
Q 353 884 353 1716 
Q 353 2575 817 3079 
Q 1281 3584 2069 3584 
Q 2775 3584 3186 3129 
Q 3597 2675 3597 1894 
z
M 3022 2063 
Q 3016 2534 2758 2815 
Q 2500 3097 2075 3097 
Q 1594 3097 1305 2825 
Q 1016 2553 972 2059 
L 3022 2063 
z
" transform="scale(0.015625)"/>
       <path id="DejaVuSans-73" d="M 2834 3397 
L 2834 2853 
Q 2591 2978 2328 3040 
Q 2066 3103 1784 3103 
Q 1356 3103 1142 2972 
Q 928 2841 928 2578 
Q 928 2378 1081 2264 
Q 1234 2150 1697 2047 
L 1894 2003 
Q 2506 1872 2764 1633 
Q 3022 1394 3022 966 
Q 3022 478 2636 193 
Q 2250 -91 1575 -91 
Q 1294 -91 989 -36 
Q 684 19 347 128 
L 347 722 
Q 666 556 975 473 
Q 1284 391 1588 391 
Q 1994 391 2212 530 
Q 2431 669 2431 922 
Q 2431 1156 2273 1281 
Q 2116 1406 1581 1522 
L 1381 1569 
Q 847 1681 609 1914 
Q 372 2147 372 2553 
Q 372 3047 722 3315 
Q 1072 3584 1716 3584 
Q 2034 3584 2315 3537 
Q 2597 3491 2834 3397 
z
" transform="scale(0.015625)"/>
       <path id="DejaVuSans-6f" d="M 1959 3097 
Q 1497 3097 1228 2736 
Q 959 2375 959 1747 
Q 959 1119 1226 758 
Q 1494 397 1959 397 
Q 2419 397 2687 759 
Q 2956 1122 2956 1747 
Q 2956 2369 2687 2733 
Q 2419 3097 1959 3097 
z
M 1959 3584 
Q 2709 3584 3137 3096 
Q 3566 2609 3566 1747 
Q 3566 888 3137 398 
Q 2709 -91 1959 -91 
Q 1206 -91 779 398 
Q 353 888 353 1747 
Q 353 2609 779 3096 
Q 1206 3584 1959 3584 
z
" transform="scale(0.015625)"/>
      </defs>
      <use xlink:href="#DejaVuSans-50"/>
      <use xlink:href="#DejaVuSans-65" x="56.677734"/>
      <use xlink:href="#DejaVuSans-73" x="118.201172"/>
      <use xlink:href="#DejaVuSans-6f" x="170.300781"/>
      <use xlink:href="#DejaVuSans-73" x="231.482422"/>
     </g>
    </g>
   </g>
   <g id="matplotlib.axis_2">
    <g id="ytick_1">
     <g id="line2d_6">
      <defs>
       <path id="m6eac558061" d="M 0 0 
L -3.5 0 
" style="stroke: #000000; stroke-width: 0.8"/>
      </defs>
      <g>
       <use xlink:href="#m6eac558061" x="135" y="544.388936" style="stroke: #000000; stroke-width: 0.8"/>
      </g>
     </g>
     <g id="text_7">
      <!-- sensor_10 -->
      <g transform="translate(67.786322 604.394447)rotate(-45)scale(0.16 -0.16)">
       <defs>
        <path id="DejaVuSans-6e" d="M 3513 2113 
L 3513 0 
L 2938 0 
L 2938 2094 
Q 2938 2591 2744 2837 
Q 2550 3084 2163 3084 
Q 1697 3084 1428 2787 
Q 1159 2491 1159 1978 
L 1159 0 
L 581 0 
L 581 3500 
L 1159 3500 
L 1159 2956 
Q 1366 3272 1645 3428 
Q 1925 3584 2291 3584 
Q 2894 3584 3203 3211 
Q 3513 2838 3513 2113 
z
" transform="scale(0.015625)"/>
        <path id="DejaVuSans-72" d="M 2631 2963 
Q 2534 3019 2420 3045 
Q 2306 3072 2169 3072 
Q 1681 3072 1420 2755 
Q 1159 2438 1159 1844 
L 1159 0 
L 581 0 
L 581 3500 
L 1159 3500 
L 1159 2956 
Q 1341 3275 1631 3429 
Q 1922 3584 2338 3584 
Q 2397 3584 2469 3576 
Q 2541 3569 2628 3553 
L 2631 2963 
z
" transform="scale(0.015625)"/>
        <path id="DejaVuSans-5f" d="M 3263 -1063 
L 3263 -1509 
L -63 -1509 
L -63 -1063 
L 3263 -1063 
z
" transform="scale(0.015625)"/>
       </defs>
       <use xlink:href="#DejaVuSans-73"/>
       <use xlink:href="#DejaVuSans-65" x="52.099609"/>
       <use xlink:href="#DejaVuSans-6e" x="113.623047"/>
       <use xlink:href="#DejaVuSans-73" x="177.001953"/>
       <use xlink:href="#DejaVuSans-6f" x="229.101562"/>
       <use xlink:href="#DejaVuSans-72" x="290.283203"/>
       <use xlink:href="#DejaVuSans-5f" x="331.396484"/>
       <use xlink:href="#DejaVuSans-31" x="381.396484"/>
       <use xlink:href="#DejaVuSans-30" x="445.019531"/>
      </g>
     </g>
    </g>
    <g id="ytick_2">
     <g id="line2d_7">
      <g>
       <use xlink:href="#m6eac558061" x="135" y="520.261277" style="stroke: #000000; stroke-width: 0.8"/>
      </g>
     </g>
     <g id="text_8">
      <!-- setting_2 -->
      <g transform="translate(73.255793 574.855824)rotate(-45)scale(0.16 -0.16)">
       <defs>
        <path id="DejaVuSans-74" d="M 1172 4494 
L 1172 3500 
L 2356 3500 
L 2356 3053 
L 1172 3053 
L 1172 1153 
Q 1172 725 1289 603 
Q 1406 481 1766 481 
L 2356 481 
L 2356 0 
L 1766 0 
Q 1100 0 847 248 
Q 594 497 594 1153 
L 594 3053 
L 172 3053 
L 172 3500 
L 594 3500 
L 594 4494 
L 1172 4494 
z
" transform="scale(0.015625)"/>
        <path id="DejaVuSans-69" d="M 603 3500 
L 1178 3500 
L 1178 0 
L 603 0 
L 603 3500 
z
M 603 4863 
L 1178 4863 
L 1178 4134 
L 603 4134 
L 603 4863 
z
" transform="scale(0.015625)"/>
        <path id="DejaVuSans-67" d="M 2906 1791 
Q 2906 2416 2648 2759 
Q 2391 3103 1925 3103 
Q 1463 3103 1205 2759 
Q 947 2416 947 1791 
Q 947 1169 1205 825 
Q 1463 481 1925 481 
Q 2391 481 2648 825 
Q 2906 1169 2906 1791 
z
M 3481 434 
Q 3481 -459 3084 -895 
Q 2688 -1331 1869 -1331 
Q 1566 -1331 1297 -1286 
Q 1028 -1241 775 -1147 
L 775 -588 
Q 1028 -725 1275 -790 
Q 1522 -856 1778 -856 
Q 2344 -856 2625 -561 
Q 2906 -266 2906 331 
L 2906 616 
Q 2728 306 2450 153 
Q 2172 0 1784 0 
Q 1141 0 747 490 
Q 353 981 353 1791 
Q 353 2603 747 3093 
Q 1141 3584 1784 3584 
Q 2172 3584 2450 3431 
Q 2728 3278 2906 2969 
L 2906 3500 
L 3481 3500 
L 3481 434 
z
" transform="scale(0.015625)"/>
       </defs>
       <use xlink:href="#DejaVuSans-73"/>
       <use xlink:href="#DejaVuSans-65" x="52.099609"/>
       <use xlink:href="#DejaVuSans-74" x="113.623047"/>
       <use xlink:href="#DejaVuSans-74" x="152.832031"/>
       <use xlink:href="#DejaVuSans-69" x="192.041016"/>
       <use xlink:href="#DejaVuSans-6e" x="219.824219"/>
       <use xlink:href="#DejaVuSans-67" x="283.203125"/>
       <use xlink:href="#DejaVuSans-5f" x="346.679688"/>
       <use xlink:href="#DejaVuSans-32" x="396.679688"/>
      </g>
     </g>
    </g>
    <g id="ytick_3">
     <g id="line2d_8">
      <g>
       <use xlink:href="#m6eac558061" x="135" y="496.133617" style="stroke: #000000; stroke-width: 0.8"/>
      </g>
     </g>
     <g id="text_9">
      <!-- sensor_17 -->
      <g transform="translate(67.786322 556.105473)rotate(-45)scale(0.16 -0.16)">
       <defs>
        <path id="DejaVuSans-37" d="M 525 4666 
L 3525 4666 
L 3525 4397 
L 1831 0 
L 1172 0 
L 2766 4134 
L 525 4134 
L 525 4666 
z
" transform="scale(0.015625)"/>
       </defs>
       <use xlink:href="#DejaVuSans-73"/>
       <use xlink:href="#DejaVuSans-65" x="52.099609"/>
       <use xlink:href="#DejaVuSans-6e" x="113.623047"/>
       <use xlink:href="#DejaVuSans-73" x="177.001953"/>
       <use xlink:href="#DejaVuSans-6f" x="229.101562"/>
       <use xlink:href="#DejaVuSans-72" x="290.283203"/>
       <use xlink:href="#DejaVuSans-5f" x="331.396484"/>
       <use xlink:href="#DejaVuSans-31" x="381.396484"/>
       <use xlink:href="#DejaVuSans-37" x="445.019531"/>
      </g>
     </g>
    </g>
    <g id="ytick_4">
     <g id="line2d_9">
      <g>
       <use xlink:href="#m6eac558061" x="135" y="472.005957" style="stroke: #000000; stroke-width: 0.8"/>
      </g>
     </g>
     <g id="text_10">
      <!-- setting_1 -->
      <g transform="translate(73.255793 526.600505)rotate(-45)scale(0.16 -0.16)">
       <use xlink:href="#DejaVuSans-73"/>
       <use xlink:href="#DejaVuSans-65" x="52.099609"/>
       <use xlink:href="#DejaVuSans-74" x="113.623047"/>
       <use xlink:href="#DejaVuSans-74" x="152.832031"/>
       <use xlink:href="#DejaVuSans-69" x="192.041016"/>
       <use xlink:href="#DejaVuSans-6e" x="219.824219"/>
       <use xlink:href="#DejaVuSans-67" x="283.203125"/>
       <use xlink:href="#DejaVuSans-5f" x="346.679688"/>
       <use xlink:href="#DejaVuSans-31" x="396.679688"/>
      </g>
     </g>
    </g>
    <g id="ytick_5">
     <g id="line2d_10">
      <g>
       <use xlink:href="#m6eac558061" x="135" y="447.878298" style="stroke: #000000; stroke-width: 0.8"/>
      </g>
     </g>
     <g id="text_11">
      <!-- sensor_20 -->
      <g transform="translate(67.786322 507.883809)rotate(-45)scale(0.16 -0.16)">
       <use xlink:href="#DejaVuSans-73"/>
       <use xlink:href="#DejaVuSans-65" x="52.099609"/>
       <use xlink:href="#DejaVuSans-6e" x="113.623047"/>
       <use xlink:href="#DejaVuSans-73" x="177.001953"/>
       <use xlink:href="#DejaVuSans-6f" x="229.101562"/>
       <use xlink:href="#DejaVuSans-72" x="290.283203"/>
       <use xlink:href="#DejaVuSans-5f" x="331.396484"/>
       <use xlink:href="#DejaVuSans-32" x="381.396484"/>
       <use xlink:href="#DejaVuSans-30" x="445.019531"/>
      </g>
     </g>
    </g>
    <g id="ytick_6">
     <g id="line2d_11">
      <g>
       <use xlink:href="#m6eac558061" x="135" y="423.750638" style="stroke: #000000; stroke-width: 0.8"/>
      </g>
     </g>
     <g id="text_12">
      <!-- sensor_21 -->
      <g transform="translate(67.786322 483.756149)rotate(-45)scale(0.16 -0.16)">
       <use xlink:href="#DejaVuSans-73"/>
       <use xlink:href="#DejaVuSans-65" x="52.099609"/>
       <use xlink:href="#DejaVuSans-6e" x="113.623047"/>
       <use xlink:href="#DejaVuSans-73" x="177.001953"/>
       <use xlink:href="#DejaVuSans-6f" x="229.101562"/>
       <use xlink:href="#DejaVuSans-72" x="290.283203"/>
       <use xlink:href="#DejaVuSans-5f" x="331.396484"/>
       <use xlink:href="#DejaVuSans-32" x="381.396484"/>
       <use xlink:href="#DejaVuSans-31" x="445.019531"/>
      </g>
     </g>
    </g>
    <g id="ytick_7">
     <g id="line2d_12">
      <g>
       <use xlink:href="#m6eac558061" x="135" y="399.622979" style="stroke: #000000; stroke-width: 0.8"/>
      </g>
     </g>
     <g id="text_13">
      <!-- sensor_2 -->
      <g transform="translate(74.984669 452.430142)rotate(-45)scale(0.16 -0.16)">
       <use xlink:href="#DejaVuSans-73"/>
       <use xlink:href="#DejaVuSans-65" x="52.099609"/>
       <use xlink:href="#DejaVuSans-6e" x="113.623047"/>
       <use xlink:href="#DejaVuSans-73" x="177.001953"/>
       <use xlink:href="#DejaVuSans-6f" x="229.101562"/>
       <use xlink:href="#DejaVuSans-72" x="290.283203"/>
       <use xlink:href="#DejaVuSans-5f" x="331.396484"/>
       <use xlink:href="#DejaVuSans-32" x="381.396484"/>
      </g>
     </g>
    </g>
    <g id="ytick_8">
     <g id="line2d_13">
      <g>
       <use xlink:href="#m6eac558061" x="135" y="375.495319" style="stroke: #000000; stroke-width: 0.8"/>
      </g>
     </g>
     <g id="text_14">
      <!-- sensor_8 -->
      <g transform="translate(74.984669 428.302483)rotate(-45)scale(0.16 -0.16)">
       <defs>
        <path id="DejaVuSans-38" d="M 2034 2216 
Q 1584 2216 1326 1975 
Q 1069 1734 1069 1313 
Q 1069 891 1326 650 
Q 1584 409 2034 409 
Q 2484 409 2743 651 
Q 3003 894 3003 1313 
Q 3003 1734 2745 1975 
Q 2488 2216 2034 2216 
z
M 1403 2484 
Q 997 2584 770 2862 
Q 544 3141 544 3541 
Q 544 4100 942 4425 
Q 1341 4750 2034 4750 
Q 2731 4750 3128 4425 
Q 3525 4100 3525 3541 
Q 3525 3141 3298 2862 
Q 3072 2584 2669 2484 
Q 3125 2378 3379 2068 
Q 3634 1759 3634 1313 
Q 3634 634 3220 271 
Q 2806 -91 2034 -91 
Q 1263 -91 848 271 
Q 434 634 434 1313 
Q 434 1759 690 2068 
Q 947 2378 1403 2484 
z
M 1172 3481 
Q 1172 3119 1398 2916 
Q 1625 2713 2034 2713 
Q 2441 2713 2670 2916 
Q 2900 3119 2900 3481 
Q 2900 3844 2670 4047 
Q 2441 4250 2034 4250 
Q 1625 4250 1398 4047 
Q 1172 3844 1172 3481 
z
" transform="scale(0.015625)"/>
       </defs>
       <use xlink:href="#DejaVuSans-73"/>
       <use xlink:href="#DejaVuSans-65" x="52.099609"/>
       <use xlink:href="#DejaVuSans-6e" x="113.623047"/>
       <use xlink:href="#DejaVuSans-73" x="177.001953"/>
       <use xlink:href="#DejaVuSans-6f" x="229.101562"/>
       <use xlink:href="#DejaVuSans-72" x="290.283203"/>
       <use xlink:href="#DejaVuSans-5f" x="331.396484"/>
       <use xlink:href="#DejaVuSans-38" x="381.396484"/>
      </g>
     </g>
    </g>
    <g id="ytick_9">
     <g id="line2d_14">
      <g>
       <use xlink:href="#m6eac558061" x="135" y="351.36766" style="stroke: #000000; stroke-width: 0.8"/>
      </g>
     </g>
     <g id="text_15">
      <!-- sensor_3 -->
      <g transform="translate(74.984669 404.174823)rotate(-45)scale(0.16 -0.16)">
       <use xlink:href="#DejaVuSans-73"/>
       <use xlink:href="#DejaVuSans-65" x="52.099609"/>
       <use xlink:href="#DejaVuSans-6e" x="113.623047"/>
       <use xlink:href="#DejaVuSans-73" x="177.001953"/>
       <use xlink:href="#DejaVuSans-6f" x="229.101562"/>
       <use xlink:href="#DejaVuSans-72" x="290.283203"/>
       <use xlink:href="#DejaVuSans-5f" x="331.396484"/>
       <use xlink:href="#DejaVuSans-33" x="381.396484"/>
      </g>
     </g>
    </g>
    <g id="ytick_10">
     <g id="line2d_15">
      <g>
       <use xlink:href="#m6eac558061" x="135" y="327.24" style="stroke: #000000; stroke-width: 0.8"/>
      </g>
     </g>
     <g id="text_16">
      <!-- sensor_13 -->
      <g transform="translate(67.786322 387.245511)rotate(-45)scale(0.16 -0.16)">
       <use xlink:href="#DejaVuSans-73"/>
       <use xlink:href="#DejaVuSans-65" x="52.099609"/>
       <use xlink:href="#DejaVuSans-6e" x="113.623047"/>
       <use xlink:href="#DejaVuSans-73" x="177.001953"/>
       <use xlink:href="#DejaVuSans-6f" x="229.101562"/>
       <use xlink:href="#DejaVuSans-72" x="290.283203"/>
       <use xlink:href="#DejaVuSans-5f" x="331.396484"/>
       <use xlink:href="#DejaVuSans-31" x="381.396484"/>
       <use xlink:href="#DejaVuSans-33" x="445.019531"/>
      </g>
     </g>
    </g>
    <g id="ytick_11">
     <g id="line2d_16">
      <g>
       <use xlink:href="#m6eac558061" x="135" y="303.11234" style="stroke: #000000; stroke-width: 0.8"/>
      </g>
     </g>
     <g id="text_17">
      <!-- sensor_15 -->
      <g transform="translate(67.786322 363.084196)rotate(-45)scale(0.16 -0.16)">
       <defs>
        <path id="DejaVuSans-35" d="M 691 4666 
L 3169 4666 
L 3169 4134 
L 1269 4134 
L 1269 2991 
Q 1406 3038 1543 3061 
Q 1681 3084 1819 3084 
Q 2600 3084 3056 2656 
Q 3513 2228 3513 1497 
Q 3513 744 3044 326 
Q 2575 -91 1722 -91 
Q 1428 -91 1123 -41 
Q 819 9 494 109 
L 494 744 
Q 775 591 1075 516 
Q 1375 441 1709 441 
Q 2250 441 2565 725 
Q 2881 1009 2881 1497 
Q 2881 1984 2565 2268 
Q 2250 2553 1709 2553 
Q 1456 2553 1204 2497 
Q 953 2441 691 2322 
L 691 4666 
z
" transform="scale(0.015625)"/>
       </defs>
       <use xlink:href="#DejaVuSans-73"/>
       <use xlink:href="#DejaVuSans-65" x="52.099609"/>
       <use xlink:href="#DejaVuSans-6e" x="113.623047"/>
       <use xlink:href="#DejaVuSans-73" x="177.001953"/>
       <use xlink:href="#DejaVuSans-6f" x="229.101562"/>
       <use xlink:href="#DejaVuSans-72" x="290.283203"/>
       <use xlink:href="#DejaVuSans-5f" x="331.396484"/>
       <use xlink:href="#DejaVuSans-31" x="381.396484"/>
       <use xlink:href="#DejaVuSans-35" x="445.019531"/>
      </g>
     </g>
    </g>
    <g id="ytick_12">
     <g id="line2d_17">
      <g>
       <use xlink:href="#m6eac558061" x="135" y="278.984681" style="stroke: #000000; stroke-width: 0.8"/>
      </g>
     </g>
     <g id="text_18">
      <!-- sensor_4 -->
      <g transform="translate(74.984669 331.75819)rotate(-45)scale(0.16 -0.16)">
       <use xlink:href="#DejaVuSans-73"/>
       <use xlink:href="#DejaVuSans-65" x="52.099609"/>
       <use xlink:href="#DejaVuSans-6e" x="113.623047"/>
       <use xlink:href="#DejaVuSans-73" x="177.001953"/>
       <use xlink:href="#DejaVuSans-6f" x="229.101562"/>
       <use xlink:href="#DejaVuSans-72" x="290.283203"/>
       <use xlink:href="#DejaVuSans-5f" x="331.396484"/>
       <use xlink:href="#DejaVuSans-34" x="381.396484"/>
      </g>
     </g>
    </g>
    <g id="ytick_13">
     <g id="line2d_18">
      <g>
       <use xlink:href="#m6eac558061" x="135" y="254.857021" style="stroke: #000000; stroke-width: 0.8"/>
      </g>
     </g>
     <g id="text_19">
      <!-- sensor_12 -->
      <g transform="translate(67.786322 314.862532)rotate(-45)scale(0.16 -0.16)">
       <use xlink:href="#DejaVuSans-73"/>
       <use xlink:href="#DejaVuSans-65" x="52.099609"/>
       <use xlink:href="#DejaVuSans-6e" x="113.623047"/>
       <use xlink:href="#DejaVuSans-73" x="177.001953"/>
       <use xlink:href="#DejaVuSans-6f" x="229.101562"/>
       <use xlink:href="#DejaVuSans-72" x="290.283203"/>
       <use xlink:href="#DejaVuSans-5f" x="331.396484"/>
       <use xlink:href="#DejaVuSans-31" x="381.396484"/>
       <use xlink:href="#DejaVuSans-32" x="445.019531"/>
      </g>
     </g>
    </g>
    <g id="ytick_14">
     <g id="line2d_19">
      <g>
       <use xlink:href="#m6eac558061" x="135" y="230.729362" style="stroke: #000000; stroke-width: 0.8"/>
      </g>
     </g>
     <g id="text_20">
      <!-- sensor_7 -->
      <g transform="translate(74.984669 283.50287)rotate(-45)scale(0.16 -0.16)">
       <use xlink:href="#DejaVuSans-73"/>
       <use xlink:href="#DejaVuSans-65" x="52.099609"/>
       <use xlink:href="#DejaVuSans-6e" x="113.623047"/>
       <use xlink:href="#DejaVuSans-73" x="177.001953"/>
       <use xlink:href="#DejaVuSans-6f" x="229.101562"/>
       <use xlink:href="#DejaVuSans-72" x="290.283203"/>
       <use xlink:href="#DejaVuSans-5f" x="331.396484"/>
       <use xlink:href="#DejaVuSans-37" x="381.396484"/>
      </g>
     </g>
    </g>
    <g id="ytick_15">
     <g id="line2d_20">
      <g>
       <use xlink:href="#m6eac558061" x="135" y="206.601702" style="stroke: #000000; stroke-width: 0.8"/>
      </g>
     </g>
     <g id="text_21">
      <!-- sensor_11 -->
      <g transform="translate(67.786322 266.573558)rotate(-45)scale(0.16 -0.16)">
       <use xlink:href="#DejaVuSans-73"/>
       <use xlink:href="#DejaVuSans-65" x="52.099609"/>
       <use xlink:href="#DejaVuSans-6e" x="113.623047"/>
       <use xlink:href="#DejaVuSans-73" x="177.001953"/>
       <use xlink:href="#DejaVuSans-6f" x="229.101562"/>
       <use xlink:href="#DejaVuSans-72" x="290.283203"/>
       <use xlink:href="#DejaVuSans-5f" x="331.396484"/>
       <use xlink:href="#DejaVuSans-31" x="381.396484"/>
       <use xlink:href="#DejaVuSans-31" x="445.019531"/>
      </g>
     </g>
    </g>
    <g id="ytick_16">
     <g id="line2d_21">
      <g>
       <use xlink:href="#m6eac558061" x="135" y="182.474043" style="stroke: #000000; stroke-width: 0.8"/>
      </g>
     </g>
     <g id="text_22">
      <!-- sensor_6 -->
      <g transform="translate(74.984669 235.281206)rotate(-45)scale(0.16 -0.16)">
       <defs>
        <path id="DejaVuSans-36" d="M 2113 2584 
Q 1688 2584 1439 2293 
Q 1191 2003 1191 1497 
Q 1191 994 1439 701 
Q 1688 409 2113 409 
Q 2538 409 2786 701 
Q 3034 994 3034 1497 
Q 3034 2003 2786 2293 
Q 2538 2584 2113 2584 
z
M 3366 4563 
L 3366 3988 
Q 3128 4100 2886 4159 
Q 2644 4219 2406 4219 
Q 1781 4219 1451 3797 
Q 1122 3375 1075 2522 
Q 1259 2794 1537 2939 
Q 1816 3084 2150 3084 
Q 2853 3084 3261 2657 
Q 3669 2231 3669 1497 
Q 3669 778 3244 343 
Q 2819 -91 2113 -91 
Q 1303 -91 875 529 
Q 447 1150 447 2328 
Q 447 3434 972 4092 
Q 1497 4750 2381 4750 
Q 2619 4750 2861 4703 
Q 3103 4656 3366 4563 
z
" transform="scale(0.015625)"/>
       </defs>
       <use xlink:href="#DejaVuSans-73"/>
       <use xlink:href="#DejaVuSans-65" x="52.099609"/>
       <use xlink:href="#DejaVuSans-6e" x="113.623047"/>
       <use xlink:href="#DejaVuSans-73" x="177.001953"/>
       <use xlink:href="#DejaVuSans-6f" x="229.101562"/>
       <use xlink:href="#DejaVuSans-72" x="290.283203"/>
       <use xlink:href="#DejaVuSans-5f" x="331.396484"/>
       <use xlink:href="#DejaVuSans-36" x="381.396484"/>
      </g>
     </g>
    </g>
    <g id="ytick_17">
     <g id="line2d_22">
      <g>
       <use xlink:href="#m6eac558061" x="135" y="158.346383" style="stroke: #000000; stroke-width: 0.8"/>
      </g>
     </g>
     <g id="text_23">
      <!-- sensor_9 -->
      <g transform="translate(74.984669 211.153547)rotate(-45)scale(0.16 -0.16)">
       <defs>
        <path id="DejaVuSans-39" d="M 703 97 
L 703 672 
Q 941 559 1184 500 
Q 1428 441 1663 441 
Q 2288 441 2617 861 
Q 2947 1281 2994 2138 
Q 2813 1869 2534 1725 
Q 2256 1581 1919 1581 
Q 1219 1581 811 2004 
Q 403 2428 403 3163 
Q 403 3881 828 4315 
Q 1253 4750 1959 4750 
Q 2769 4750 3195 4129 
Q 3622 3509 3622 2328 
Q 3622 1225 3098 567 
Q 2575 -91 1691 -91 
Q 1453 -91 1209 -44 
Q 966 3 703 97 
z
M 1959 2075 
Q 2384 2075 2632 2365 
Q 2881 2656 2881 3163 
Q 2881 3666 2632 3958 
Q 2384 4250 1959 4250 
Q 1534 4250 1286 3958 
Q 1038 3666 1038 3163 
Q 1038 2656 1286 2365 
Q 1534 2075 1959 2075 
z
" transform="scale(0.015625)"/>
       </defs>
       <use xlink:href="#DejaVuSans-73"/>
       <use xlink:href="#DejaVuSans-65" x="52.099609"/>
       <use xlink:href="#DejaVuSans-6e" x="113.623047"/>
       <use xlink:href="#DejaVuSans-73" x="177.001953"/>
       <use xlink:href="#DejaVuSans-6f" x="229.101562"/>
       <use xlink:href="#DejaVuSans-72" x="290.283203"/>
       <use xlink:href="#DejaVuSans-5f" x="331.396484"/>
       <use xlink:href="#DejaVuSans-39" x="381.396484"/>
      </g>
     </g>
    </g>
    <g id="ytick_18">
     <g id="line2d_23">
      <g>
       <use xlink:href="#m6eac558061" x="135" y="134.218723" style="stroke: #000000; stroke-width: 0.8"/>
      </g>
     </g>
     <g id="text_24">
      <!-- sensor_14 -->
      <g transform="translate(67.786322 194.190579)rotate(-45)scale(0.16 -0.16)">
       <use xlink:href="#DejaVuSans-73"/>
       <use xlink:href="#DejaVuSans-65" x="52.099609"/>
       <use xlink:href="#DejaVuSans-6e" x="113.623047"/>
       <use xlink:href="#DejaVuSans-73" x="177.001953"/>
       <use xlink:href="#DejaVuSans-6f" x="229.101562"/>
       <use xlink:href="#DejaVuSans-72" x="290.283203"/>
       <use xlink:href="#DejaVuSans-5f" x="331.396484"/>
       <use xlink:href="#DejaVuSans-31" x="381.396484"/>
       <use xlink:href="#DejaVuSans-34" x="445.019531"/>
      </g>
     </g>
    </g>
    <g id="ytick_19">
     <g id="line2d_24">
      <g>
       <use xlink:href="#m6eac558061" x="135" y="110.091064" style="stroke: #000000; stroke-width: 0.8"/>
      </g>
     </g>
     <g id="text_25">
      <!-- time -->
      <g transform="translate(100.08696 138.169107)rotate(-45)scale(0.16 -0.16)">
       <defs>
        <path id="DejaVuSans-6d" d="M 3328 2828 
Q 3544 3216 3844 3400 
Q 4144 3584 4550 3584 
Q 5097 3584 5394 3201 
Q 5691 2819 5691 2113 
L 5691 0 
L 5113 0 
L 5113 2094 
Q 5113 2597 4934 2840 
Q 4756 3084 4391 3084 
Q 3944 3084 3684 2787 
Q 3425 2491 3425 1978 
L 3425 0 
L 2847 0 
L 2847 2094 
Q 2847 2600 2669 2842 
Q 2491 3084 2119 3084 
Q 1678 3084 1418 2786 
Q 1159 2488 1159 1978 
L 1159 0 
L 581 0 
L 581 3500 
L 1159 3500 
L 1159 2956 
Q 1356 3278 1631 3431 
Q 1906 3584 2284 3584 
Q 2666 3584 2933 3390 
Q 3200 3197 3328 2828 
z
" transform="scale(0.015625)"/>
       </defs>
       <use xlink:href="#DejaVuSans-74"/>
       <use xlink:href="#DejaVuSans-69" x="39.208984"/>
       <use xlink:href="#DejaVuSans-6d" x="66.992188"/>
       <use xlink:href="#DejaVuSans-65" x="164.404297"/>
      </g>
     </g>
    </g>
   </g>
   <g id="patch_22">
    <path d="M 135 576.72 
L 135 77.76 
" style="fill: none; stroke: #000000; stroke-width: 0.8; stroke-linejoin: miter; stroke-linecap: square"/>
   </g>
   <g id="patch_23">
    <path d="M 972 576.72 
L 972 77.76 
" style="fill: none; stroke: #000000; stroke-width: 0.8; stroke-linejoin: miter; stroke-linecap: square"/>
   </g>
   <g id="patch_24">
    <path d="M 135 576.72 
L 972 576.72 
" style="fill: none; stroke: #000000; stroke-width: 0.8; stroke-linejoin: miter; stroke-linecap: square"/>
   </g>
   <g id="patch_25">
    <path d="M 135 77.76 
L 972 77.76 
" style="fill: none; stroke: #000000; stroke-width: 0.8; stroke-linejoin: miter; stroke-linecap: square"/>
   </g>
  </g>
 </g>
 <defs>
  <clipPath id="p30a31c182f">
   <rect x="135" y="77.76" width="837" height="498.96"/>
  </clipPath>
 </defs>
</svg>
