<?xml version="1.0" encoding="utf-8" standalone="no"?>
<!DOCTYPE svg PUBLIC "-//W3C//DTD SVG 1.1//EN"
  "http://www.w3.org/Graphics/SVG/1.1/DTD/svg11.dtd">
<svg xmlns:xlink="http://www.w3.org/1999/xlink" width="1800pt" height="432pt" viewBox="0 0 1800 432" xmlns="http://www.w3.org/2000/svg" version="1.1">
 <metadata>
  <rdf:RDF xmlns:dc="http://purl.org/dc/elements/1.1/" xmlns:cc="http://creativecommons.org/ns#" xmlns:rdf="http://www.w3.org/1999/02/22-rdf-syntax-ns#">
   <cc:Work>
    <dc:type rdf:resource="http://purl.org/dc/dcmitype/StillImage"/>
    <dc:date>2023-04-30T14:19:17.741110</dc:date>
    <dc:format>image/svg+xml</dc:format>
    <dc:creator>
     <cc:Agent>
      <dc:title>Matplotlib v3.5.3, https://matplotlib.org/</dc:title>
     </cc:Agent>
    </dc:creator>
   </cc:Work>
  </rdf:RDF>
 </metadata>
 <defs>
  <style type="text/css">*{stroke-linejoin: round; stroke-linecap: butt}</style>
 </defs>
 <g id="figure_1">
  <g id="patch_1">
   <path d="M 0 432 
L 1800 432 
L 1800 0 
L 0 0 
z
" style="fill: #ffffff"/>
  </g>
  <g id="axes_1">
   <g id="patch_2">
    <path d="M 225 384.48 
L 1620 384.48 
L 1620 51.84 
L 225 51.84 
z
" style="fill: #ffffff"/>
   </g>
   <g id="matplotlib.axis_1">
    <g id="xtick_1">
     <g id="line2d_1">
      <defs>
       <path id="m674c6074cd" d="M 0 0 
L 0 3.5 
" style="stroke: #000000; stroke-width: 0.8"/>
      </defs>
      <g>
       <use xlink:href="#m674c6074cd" x="237.4" y="384.48" style="stroke: #000000; stroke-width: 0.8"/>
      </g>
     </g>
     <g id="text_1">
      <!-- 0 -->
      <g transform="translate(231.67375 405.157188)scale(0.18 -0.18)">
       <defs>
        <path id="DejaVuSans-30" d="M 2034 4250 
Q 1547 4250 1301 3770 
Q 1056 3291 1056 2328 
Q 1056 1369 1301 889 
Q 1547 409 2034 409 
Q 2525 409 2770 889 
Q 3016 1369 3016 2328 
Q 3016 3291 2770 3770 
Q 2525 4250 2034 4250 
z
M 2034 4750 
Q 2819 4750 3233 4129 
Q 3647 3509 3647 2328 
Q 3647 1150 3233 529 
Q 2819 -91 2034 -91 
Q 1250 -91 836 529 
Q 422 1150 422 2328 
Q 422 3509 836 4129 
Q 1250 4750 2034 4750 
z
" transform="scale(0.015625)"/>
       </defs>
       <use xlink:href="#DejaVuSans-30"/>
      </g>
     </g>
    </g>
    <g id="xtick_2">
     <g id="line2d_2">
      <g>
       <use xlink:href="#m674c6074cd" x="485.4" y="384.48" style="stroke: #000000; stroke-width: 0.8"/>
      </g>
     </g>
     <g id="text_2">
      <!-- 200 -->
      <g transform="translate(468.22125 405.157188)scale(0.18 -0.18)">
       <defs>
        <path id="DejaVuSans-32" d="M 1228 531 
L 3431 531 
L 3431 0 
L 469 0 
L 469 531 
Q 828 903 1448 1529 
Q 2069 2156 2228 2338 
Q 2531 2678 2651 2914 
Q 2772 3150 2772 3378 
Q 2772 3750 2511 3984 
Q 2250 4219 1831 4219 
Q 1534 4219 1204 4116 
Q 875 4013 500 3803 
L 500 4441 
Q 881 4594 1212 4672 
Q 1544 4750 1819 4750 
Q 2544 4750 2975 4387 
Q 3406 4025 3406 3419 
Q 3406 3131 3298 2873 
Q 3191 2616 2906 2266 
Q 2828 2175 2409 1742 
Q 1991 1309 1228 531 
z
" transform="scale(0.015625)"/>
       </defs>
       <use xlink:href="#DejaVuSans-32"/>
       <use xlink:href="#DejaVuSans-30" x="63.623047"/>
       <use xlink:href="#DejaVuSans-30" x="127.246094"/>
      </g>
     </g>
    </g>
    <g id="xtick_3">
     <g id="line2d_3">
      <g>
       <use xlink:href="#m674c6074cd" x="733.4" y="384.48" style="stroke: #000000; stroke-width: 0.8"/>
      </g>
     </g>
     <g id="text_3">
      <!-- 400 -->
      <g transform="translate(716.22125 405.157188)scale(0.18 -0.18)">
       <defs>
        <path id="DejaVuSans-34" d="M 2419 4116 
L 825 1625 
L 2419 1625 
L 2419 4116 
z
M 2253 4666 
L 3047 4666 
L 3047 1625 
L 3713 1625 
L 3713 1100 
L 3047 1100 
L 3047 0 
L 2419 0 
L 2419 1100 
L 313 1100 
L 313 1709 
L 2253 4666 
z
" transform="scale(0.015625)"/>
       </defs>
       <use xlink:href="#DejaVuSans-34"/>
       <use xlink:href="#DejaVuSans-30" x="63.623047"/>
       <use xlink:href="#DejaVuSans-30" x="127.246094"/>
      </g>
     </g>
    </g>
    <g id="xtick_4">
     <g id="line2d_4">
      <g>
       <use xlink:href="#m674c6074cd" x="981.4" y="384.48" style="stroke: #000000; stroke-width: 0.8"/>
      </g>
     </g>
     <g id="text_4">
      <!-- 600 -->
      <g transform="translate(964.22125 405.157188)scale(0.18 -0.18)">
       <defs>
        <path id="DejaVuSans-36" d="M 2113 2584 
Q 1688 2584 1439 2293 
Q 1191 2003 1191 1497 
Q 1191 994 1439 701 
Q 1688 409 2113 409 
Q 2538 409 2786 701 
Q 3034 994 3034 1497 
Q 3034 2003 2786 2293 
Q 2538 2584 2113 2584 
z
M 3366 4563 
L 3366 3988 
Q 3128 4100 2886 4159 
Q 2644 4219 2406 4219 
Q 1781 4219 1451 3797 
Q 1122 3375 1075 2522 
Q 1259 2794 1537 2939 
Q 1816 3084 2150 3084 
Q 2853 3084 3261 2657 
Q 3669 2231 3669 1497 
Q 3669 778 3244 343 
Q 2819 -91 2113 -91 
Q 1303 -91 875 529 
Q 447 1150 447 2328 
Q 447 3434 972 4092 
Q 1497 4750 2381 4750 
Q 2619 4750 2861 4703 
Q 3103 4656 3366 4563 
z
" transform="scale(0.015625)"/>
       </defs>
       <use xlink:href="#DejaVuSans-36"/>
       <use xlink:href="#DejaVuSans-30" x="63.623047"/>
       <use xlink:href="#DejaVuSans-30" x="127.246094"/>
      </g>
     </g>
    </g>
    <g id="xtick_5">
     <g id="line2d_5">
      <g>
       <use xlink:href="#m674c6074cd" x="1229.4" y="384.48" style="stroke: #000000; stroke-width: 0.8"/>
      </g>
     </g>
     <g id="text_5">
      <!-- 800 -->
      <g transform="translate(1212.22125 405.157188)scale(0.18 -0.18)">
       <defs>
        <path id="DejaVuSans-38" d="M 2034 2216 
Q 1584 2216 1326 1975 
Q 1069 1734 1069 1313 
Q 1069 891 1326 650 
Q 1584 409 2034 409 
Q 2484 409 2743 651 
Q 3003 894 3003 1313 
Q 3003 1734 2745 1975 
Q 2488 2216 2034 2216 
z
M 1403 2484 
Q 997 2584 770 2862 
Q 544 3141 544 3541 
Q 544 4100 942 4425 
Q 1341 4750 2034 4750 
Q 2731 4750 3128 4425 
Q 3525 4100 3525 3541 
Q 3525 3141 3298 2862 
Q 3072 2584 2669 2484 
Q 3125 2378 3379 2068 
Q 3634 1759 3634 1313 
Q 3634 634 3220 271 
Q 2806 -91 2034 -91 
Q 1263 -91 848 271 
Q 434 634 434 1313 
Q 434 1759 690 2068 
Q 947 2378 1403 2484 
z
M 1172 3481 
Q 1172 3119 1398 2916 
Q 1625 2713 2034 2713 
Q 2441 2713 2670 2916 
Q 2900 3119 2900 3481 
Q 2900 3844 2670 4047 
Q 2441 4250 2034 4250 
Q 1625 4250 1398 4047 
Q 1172 3844 1172 3481 
z
" transform="scale(0.015625)"/>
       </defs>
       <use xlink:href="#DejaVuSans-38"/>
       <use xlink:href="#DejaVuSans-30" x="63.623047"/>
       <use xlink:href="#DejaVuSans-30" x="127.246094"/>
      </g>
     </g>
    </g>
    <g id="xtick_6">
     <g id="line2d_6">
      <g>
       <use xlink:href="#m674c6074cd" x="1477.4" y="384.48" style="stroke: #000000; stroke-width: 0.8"/>
      </g>
     </g>
     <g id="text_6">
      <!-- 1000 -->
      <g transform="translate(1454.495 405.157188)scale(0.18 -0.18)">
       <defs>
        <path id="DejaVuSans-31" d="M 794 531 
L 1825 531 
L 1825 4091 
L 703 3866 
L 703 4441 
L 1819 4666 
L 2450 4666 
L 2450 531 
L 3481 531 
L 3481 0 
L 794 0 
L 794 531 
z
" transform="scale(0.015625)"/>
       </defs>
       <use xlink:href="#DejaVuSans-31"/>
       <use xlink:href="#DejaVuSans-30" x="63.623047"/>
       <use xlink:href="#DejaVuSans-30" x="127.246094"/>
       <use xlink:href="#DejaVuSans-30" x="190.869141"/>
      </g>
     </g>
    </g>
    <g id="text_7">
     <!-- Ciclos -->
     <g transform="translate(890.197813 429.617188)scale(0.22 -0.22)">
      <defs>
       <path id="DejaVuSans-43" d="M 4122 4306 
L 4122 3641 
Q 3803 3938 3442 4084 
Q 3081 4231 2675 4231 
Q 1875 4231 1450 3742 
Q 1025 3253 1025 2328 
Q 1025 1406 1450 917 
Q 1875 428 2675 428 
Q 3081 428 3442 575 
Q 3803 722 4122 1019 
L 4122 359 
Q 3791 134 3420 21 
Q 3050 -91 2638 -91 
Q 1578 -91 968 557 
Q 359 1206 359 2328 
Q 359 3453 968 4101 
Q 1578 4750 2638 4750 
Q 3056 4750 3426 4639 
Q 3797 4528 4122 4306 
z
" transform="scale(0.015625)"/>
       <path id="DejaVuSans-69" d="M 603 3500 
L 1178 3500 
L 1178 0 
L 603 0 
L 603 3500 
z
M 603 4863 
L 1178 4863 
L 1178 4134 
L 603 4134 
L 603 4863 
z
" transform="scale(0.015625)"/>
       <path id="DejaVuSans-63" d="M 3122 3366 
L 3122 2828 
Q 2878 2963 2633 3030 
Q 2388 3097 2138 3097 
Q 1578 3097 1268 2742 
Q 959 2388 959 1747 
Q 959 1106 1268 751 
Q 1578 397 2138 397 
Q 2388 397 2633 464 
Q 2878 531 3122 666 
L 3122 134 
Q 2881 22 2623 -34 
Q 2366 -91 2075 -91 
Q 1284 -91 818 406 
Q 353 903 353 1747 
Q 353 2603 823 3093 
Q 1294 3584 2113 3584 
Q 2378 3584 2631 3529 
Q 2884 3475 3122 3366 
z
" transform="scale(0.015625)"/>
       <path id="DejaVuSans-6c" d="M 603 4863 
L 1178 4863 
L 1178 0 
L 603 0 
L 603 4863 
z
" transform="scale(0.015625)"/>
       <path id="DejaVuSans-6f" d="M 1959 3097 
Q 1497 3097 1228 2736 
Q 959 2375 959 1747 
Q 959 1119 1226 758 
Q 1494 397 1959 397 
Q 2419 397 2687 759 
Q 2956 1122 2956 1747 
Q 2956 2369 2687 2733 
Q 2419 3097 1959 3097 
z
M 1959 3584 
Q 2709 3584 3137 3096 
Q 3566 2609 3566 1747 
Q 3566 888 3137 398 
Q 2709 -91 1959 -91 
Q 1206 -91 779 398 
Q 353 888 353 1747 
Q 353 2609 779 3096 
Q 1206 3584 1959 3584 
z
" transform="scale(0.015625)"/>
       <path id="DejaVuSans-73" d="M 2834 3397 
L 2834 2853 
Q 2591 2978 2328 3040 
Q 2066 3103 1784 3103 
Q 1356 3103 1142 2972 
Q 928 2841 928 2578 
Q 928 2378 1081 2264 
Q 1234 2150 1697 2047 
L 1894 2003 
Q 2506 1872 2764 1633 
Q 3022 1394 3022 966 
Q 3022 478 2636 193 
Q 2250 -91 1575 -91 
Q 1294 -91 989 -36 
Q 684 19 347 128 
L 347 722 
Q 666 556 975 473 
Q 1284 391 1588 391 
Q 1994 391 2212 530 
Q 2431 669 2431 922 
Q 2431 1156 2273 1281 
Q 2116 1406 1581 1522 
L 1381 1569 
Q 847 1681 609 1914 
Q 372 2147 372 2553 
Q 372 3047 722 3315 
Q 1072 3584 1716 3584 
Q 2034 3584 2315 3537 
Q 2597 3491 2834 3397 
z
" transform="scale(0.015625)"/>
      </defs>
      <use xlink:href="#DejaVuSans-43"/>
      <use xlink:href="#DejaVuSans-69" x="69.824219"/>
      <use xlink:href="#DejaVuSans-63" x="97.607422"/>
      <use xlink:href="#DejaVuSans-6c" x="152.587891"/>
      <use xlink:href="#DejaVuSans-6f" x="180.371094"/>
      <use xlink:href="#DejaVuSans-73" x="241.552734"/>
     </g>
    </g>
   </g>
   <g id="matplotlib.axis_2">
    <g id="ytick_1">
     <g id="line2d_7">
      <defs>
       <path id="mea535525c4" d="M 0 0 
L -3.5 0 
" style="stroke: #000000; stroke-width: 0.8"/>
      </defs>
      <g>
       <use xlink:href="#mea535525c4" x="225" y="373.003373" style="stroke: #000000; stroke-width: 0.8"/>
      </g>
     </g>
     <g id="text_8">
      <!-- 641.0 -->
      <g transform="translate(166.469375 379.841967)scale(0.18 -0.18)">
       <defs>
        <path id="DejaVuSans-2e" d="M 684 794 
L 1344 794 
L 1344 0 
L 684 0 
L 684 794 
z
" transform="scale(0.015625)"/>
       </defs>
       <use xlink:href="#DejaVuSans-36"/>
       <use xlink:href="#DejaVuSans-34" x="63.623047"/>
       <use xlink:href="#DejaVuSans-31" x="127.246094"/>
       <use xlink:href="#DejaVuSans-2e" x="190.869141"/>
       <use xlink:href="#DejaVuSans-30" x="222.65625"/>
      </g>
     </g>
    </g>
    <g id="ytick_2">
     <g id="line2d_8">
      <g>
       <use xlink:href="#mea535525c4" x="225" y="331.601402" style="stroke: #000000; stroke-width: 0.8"/>
      </g>
     </g>
     <g id="text_9">
      <!-- 641.5 -->
      <g transform="translate(166.469375 338.439996)scale(0.18 -0.18)">
       <defs>
        <path id="DejaVuSans-35" d="M 691 4666 
L 3169 4666 
L 3169 4134 
L 1269 4134 
L 1269 2991 
Q 1406 3038 1543 3061 
Q 1681 3084 1819 3084 
Q 2600 3084 3056 2656 
Q 3513 2228 3513 1497 
Q 3513 744 3044 326 
Q 2575 -91 1722 -91 
Q 1428 -91 1123 -41 
Q 819 9 494 109 
L 494 744 
Q 775 591 1075 516 
Q 1375 441 1709 441 
Q 2250 441 2565 725 
Q 2881 1009 2881 1497 
Q 2881 1984 2565 2268 
Q 2250 2553 1709 2553 
Q 1456 2553 1204 2497 
Q 953 2441 691 2322 
L 691 4666 
z
" transform="scale(0.015625)"/>
       </defs>
       <use xlink:href="#DejaVuSans-36"/>
       <use xlink:href="#DejaVuSans-34" x="63.623047"/>
       <use xlink:href="#DejaVuSans-31" x="127.246094"/>
       <use xlink:href="#DejaVuSans-2e" x="190.869141"/>
       <use xlink:href="#DejaVuSans-35" x="222.65625"/>
      </g>
     </g>
    </g>
    <g id="ytick_3">
     <g id="line2d_9">
      <g>
       <use xlink:href="#mea535525c4" x="225" y="290.19943" style="stroke: #000000; stroke-width: 0.8"/>
      </g>
     </g>
     <g id="text_10">
      <!-- 642.0 -->
      <g transform="translate(166.469375 297.038024)scale(0.18 -0.18)">
       <use xlink:href="#DejaVuSans-36"/>
       <use xlink:href="#DejaVuSans-34" x="63.623047"/>
       <use xlink:href="#DejaVuSans-32" x="127.246094"/>
       <use xlink:href="#DejaVuSans-2e" x="190.869141"/>
       <use xlink:href="#DejaVuSans-30" x="222.65625"/>
      </g>
     </g>
    </g>
    <g id="ytick_4">
     <g id="line2d_10">
      <g>
       <use xlink:href="#mea535525c4" x="225" y="248.797459" style="stroke: #000000; stroke-width: 0.8"/>
      </g>
     </g>
     <g id="text_11">
      <!-- 642.5 -->
      <g transform="translate(166.469375 255.636053)scale(0.18 -0.18)">
       <use xlink:href="#DejaVuSans-36"/>
       <use xlink:href="#DejaVuSans-34" x="63.623047"/>
       <use xlink:href="#DejaVuSans-32" x="127.246094"/>
       <use xlink:href="#DejaVuSans-2e" x="190.869141"/>
       <use xlink:href="#DejaVuSans-35" x="222.65625"/>
      </g>
     </g>
    </g>
    <g id="ytick_5">
     <g id="line2d_11">
      <g>
       <use xlink:href="#mea535525c4" x="225" y="207.395487" style="stroke: #000000; stroke-width: 0.8"/>
      </g>
     </g>
     <g id="text_12">
      <!-- 643.0 -->
      <g transform="translate(166.469375 214.234081)scale(0.18 -0.18)">
       <defs>
        <path id="DejaVuSans-33" d="M 2597 2516 
Q 3050 2419 3304 2112 
Q 3559 1806 3559 1356 
Q 3559 666 3084 287 
Q 2609 -91 1734 -91 
Q 1441 -91 1130 -33 
Q 819 25 488 141 
L 488 750 
Q 750 597 1062 519 
Q 1375 441 1716 441 
Q 2309 441 2620 675 
Q 2931 909 2931 1356 
Q 2931 1769 2642 2001 
Q 2353 2234 1838 2234 
L 1294 2234 
L 1294 2753 
L 1863 2753 
Q 2328 2753 2575 2939 
Q 2822 3125 2822 3475 
Q 2822 3834 2567 4026 
Q 2313 4219 1838 4219 
Q 1578 4219 1281 4162 
Q 984 4106 628 3988 
L 628 4550 
Q 988 4650 1302 4700 
Q 1616 4750 1894 4750 
Q 2613 4750 3031 4423 
Q 3450 4097 3450 3541 
Q 3450 3153 3228 2886 
Q 3006 2619 2597 2516 
z
" transform="scale(0.015625)"/>
       </defs>
       <use xlink:href="#DejaVuSans-36"/>
       <use xlink:href="#DejaVuSans-34" x="63.623047"/>
       <use xlink:href="#DejaVuSans-33" x="127.246094"/>
       <use xlink:href="#DejaVuSans-2e" x="190.869141"/>
       <use xlink:href="#DejaVuSans-30" x="222.65625"/>
      </g>
     </g>
    </g>
    <g id="ytick_6">
     <g id="line2d_12">
      <g>
       <use xlink:href="#mea535525c4" x="225" y="165.993516" style="stroke: #000000; stroke-width: 0.8"/>
      </g>
     </g>
     <g id="text_13">
      <!-- 643.5 -->
      <g transform="translate(166.469375 172.83211)scale(0.18 -0.18)">
       <use xlink:href="#DejaVuSans-36"/>
       <use xlink:href="#DejaVuSans-34" x="63.623047"/>
       <use xlink:href="#DejaVuSans-33" x="127.246094"/>
       <use xlink:href="#DejaVuSans-2e" x="190.869141"/>
       <use xlink:href="#DejaVuSans-35" x="222.65625"/>
      </g>
     </g>
    </g>
    <g id="ytick_7">
     <g id="line2d_13">
      <g>
       <use xlink:href="#mea535525c4" x="225" y="124.591544" style="stroke: #000000; stroke-width: 0.8"/>
      </g>
     </g>
     <g id="text_14">
      <!-- 644.0 -->
      <g transform="translate(166.469375 131.430138)scale(0.18 -0.18)">
       <use xlink:href="#DejaVuSans-36"/>
       <use xlink:href="#DejaVuSans-34" x="63.623047"/>
       <use xlink:href="#DejaVuSans-34" x="127.246094"/>
       <use xlink:href="#DejaVuSans-2e" x="190.869141"/>
       <use xlink:href="#DejaVuSans-30" x="222.65625"/>
      </g>
     </g>
    </g>
    <g id="ytick_8">
     <g id="line2d_14">
      <g>
       <use xlink:href="#mea535525c4" x="225" y="83.189573" style="stroke: #000000; stroke-width: 0.8"/>
      </g>
     </g>
     <g id="text_15">
      <!-- 644.5 -->
      <g transform="translate(166.469375 90.028167)scale(0.18 -0.18)">
       <use xlink:href="#DejaVuSans-36"/>
       <use xlink:href="#DejaVuSans-34" x="63.623047"/>
       <use xlink:href="#DejaVuSans-34" x="127.246094"/>
       <use xlink:href="#DejaVuSans-2e" x="190.869141"/>
       <use xlink:href="#DejaVuSans-35" x="222.65625"/>
      </g>
     </g>
    </g>
    <g id="text_16">
     <!-- Sensor 2 (°R) -->
     <g transform="translate(157.894063 291.583281)rotate(-90)scale(0.22 -0.22)">
      <defs>
       <path id="DejaVuSans-53" d="M 3425 4513 
L 3425 3897 
Q 3066 4069 2747 4153 
Q 2428 4238 2131 4238 
Q 1616 4238 1336 4038 
Q 1056 3838 1056 3469 
Q 1056 3159 1242 3001 
Q 1428 2844 1947 2747 
L 2328 2669 
Q 3034 2534 3370 2195 
Q 3706 1856 3706 1288 
Q 3706 609 3251 259 
Q 2797 -91 1919 -91 
Q 1588 -91 1214 -16 
Q 841 59 441 206 
L 441 856 
Q 825 641 1194 531 
Q 1563 422 1919 422 
Q 2459 422 2753 634 
Q 3047 847 3047 1241 
Q 3047 1584 2836 1778 
Q 2625 1972 2144 2069 
L 1759 2144 
Q 1053 2284 737 2584 
Q 422 2884 422 3419 
Q 422 4038 858 4394 
Q 1294 4750 2059 4750 
Q 2388 4750 2728 4690 
Q 3069 4631 3425 4513 
z
" transform="scale(0.015625)"/>
       <path id="DejaVuSans-65" d="M 3597 1894 
L 3597 1613 
L 953 1613 
Q 991 1019 1311 708 
Q 1631 397 2203 397 
Q 2534 397 2845 478 
Q 3156 559 3463 722 
L 3463 178 
Q 3153 47 2828 -22 
Q 2503 -91 2169 -91 
Q 1331 -91 842 396 
Q 353 884 353 1716 
Q 353 2575 817 3079 
Q 1281 3584 2069 3584 
Q 2775 3584 3186 3129 
Q 3597 2675 3597 1894 
z
M 3022 2063 
Q 3016 2534 2758 2815 
Q 2500 3097 2075 3097 
Q 1594 3097 1305 2825 
Q 1016 2553 972 2059 
L 3022 2063 
z
" transform="scale(0.015625)"/>
       <path id="DejaVuSans-6e" d="M 3513 2113 
L 3513 0 
L 2938 0 
L 2938 2094 
Q 2938 2591 2744 2837 
Q 2550 3084 2163 3084 
Q 1697 3084 1428 2787 
Q 1159 2491 1159 1978 
L 1159 0 
L 581 0 
L 581 3500 
L 1159 3500 
L 1159 2956 
Q 1366 3272 1645 3428 
Q 1925 3584 2291 3584 
Q 2894 3584 3203 3211 
Q 3513 2838 3513 2113 
z
" transform="scale(0.015625)"/>
       <path id="DejaVuSans-72" d="M 2631 2963 
Q 2534 3019 2420 3045 
Q 2306 3072 2169 3072 
Q 1681 3072 1420 2755 
Q 1159 2438 1159 1844 
L 1159 0 
L 581 0 
L 581 3500 
L 1159 3500 
L 1159 2956 
Q 1341 3275 1631 3429 
Q 1922 3584 2338 3584 
Q 2397 3584 2469 3576 
Q 2541 3569 2628 3553 
L 2631 2963 
z
" transform="scale(0.015625)"/>
       <path id="DejaVuSans-20" transform="scale(0.015625)"/>
       <path id="DejaVuSans-28" d="M 1984 4856 
Q 1566 4138 1362 3434 
Q 1159 2731 1159 2009 
Q 1159 1288 1364 580 
Q 1569 -128 1984 -844 
L 1484 -844 
Q 1016 -109 783 600 
Q 550 1309 550 2009 
Q 550 2706 781 3412 
Q 1013 4119 1484 4856 
L 1984 4856 
z
" transform="scale(0.015625)"/>
       <path id="DejaVuSans-b0" d="M 1600 4347 
Q 1350 4347 1178 4173 
Q 1006 4000 1006 3750 
Q 1006 3503 1178 3333 
Q 1350 3163 1600 3163 
Q 1850 3163 2022 3333 
Q 2194 3503 2194 3750 
Q 2194 3997 2020 4172 
Q 1847 4347 1600 4347 
z
M 1600 4750 
Q 1800 4750 1984 4673 
Q 2169 4597 2303 4453 
Q 2447 4313 2519 4134 
Q 2591 3956 2591 3750 
Q 2591 3338 2302 3052 
Q 2013 2766 1594 2766 
Q 1172 2766 890 3047 
Q 609 3328 609 3750 
Q 609 4169 896 4459 
Q 1184 4750 1600 4750 
z
" transform="scale(0.015625)"/>
       <path id="DejaVuSans-52" d="M 2841 2188 
Q 3044 2119 3236 1894 
Q 3428 1669 3622 1275 
L 4263 0 
L 3584 0 
L 2988 1197 
Q 2756 1666 2539 1819 
Q 2322 1972 1947 1972 
L 1259 1972 
L 1259 0 
L 628 0 
L 628 4666 
L 2053 4666 
Q 2853 4666 3247 4331 
Q 3641 3997 3641 3322 
Q 3641 2881 3436 2590 
Q 3231 2300 2841 2188 
z
M 1259 4147 
L 1259 2491 
L 2053 2491 
Q 2509 2491 2742 2702 
Q 2975 2913 2975 3322 
Q 2975 3731 2742 3939 
Q 2509 4147 2053 4147 
L 1259 4147 
z
" transform="scale(0.015625)"/>
       <path id="DejaVuSans-29" d="M 513 4856 
L 1013 4856 
Q 1481 4119 1714 3412 
Q 1947 2706 1947 2009 
Q 1947 1309 1714 600 
Q 1481 -109 1013 -844 
L 513 -844 
Q 928 -128 1133 580 
Q 1338 1288 1338 2009 
Q 1338 2731 1133 3434 
Q 928 4138 513 4856 
z
" transform="scale(0.015625)"/>
      </defs>
      <use xlink:href="#DejaVuSans-53"/>
      <use xlink:href="#DejaVuSans-65" x="63.476562"/>
      <use xlink:href="#DejaVuSans-6e" x="125"/>
      <use xlink:href="#DejaVuSans-73" x="188.378906"/>
      <use xlink:href="#DejaVuSans-6f" x="240.478516"/>
      <use xlink:href="#DejaVuSans-72" x="301.660156"/>
      <use xlink:href="#DejaVuSans-20" x="342.773438"/>
      <use xlink:href="#DejaVuSans-32" x="374.560547"/>
      <use xlink:href="#DejaVuSans-20" x="438.183594"/>
      <use xlink:href="#DejaVuSans-28" x="469.970703"/>
      <use xlink:href="#DejaVuSans-b0" x="508.984375"/>
      <use xlink:href="#DejaVuSans-52" x="558.984375"/>
      <use xlink:href="#DejaVuSans-29" x="628.466797"/>
     </g>
    </g>
   </g>
   <g id="line2d_15">
    <path d="M 237.4 305.10414 
L 238.64 277.778839 
L 239.88 261.21805 
L 241.12 261.21805 
L 242.36 259.561972 
L 243.6 281.919036 
L 244.84 250.453538 
L 246.08 243.829222 
L 248.56 314.212574 
L 249.8 267.014326 
L 251.04 285.231194 
L 252.28 201.599211 
L 253.52 261.21805 
L 254.76 254.593735 
L 256 279.434918 
L 257.24 242.173143 
L 258.48 238.860986 
L 259.72 307.588258 
L 260.96 204.08333 
L 262.2 259.561972 
L 263.44 226.440394 
L 264.68 278.606878 
L 265.92 258.733932 
L 267.16 226.440394 
L 268.4 276.9508 
L 269.64 253.765696 
L 270.88 261.21805 
L 272.12 297.651785 
L 273.36 273.638642 
L 274.6 288.543352 
L 275.84 262.874129 
L 277.08 231.408631 
L 278.32 245.485301 
L 279.56 253.765696 
L 280.8 245.485301 
L 282.04 291.02747 
L 283.28 295.995706 
L 284.52 289.371391 
L 285.76 270.326484 
L 287 257.077853 
L 288.24 280.262957 
L 289.48 270.326484 
L 290.72 295.995706 
L 291.96 246.313341 
L 293.2 254.593735 
L 294.44 272.810602 
L 295.68 299.307864 
L 296.92 271.154524 
L 298.16 226.440394 
L 299.4 223.128237 
L 300.64 227.268434 
L 301.88 239.689025 
L 303.12 255.421774 
L 304.36 256.249814 
L 305.6 249.625498 
L 306.84 279.434918 
L 308.08 298.479825 
L 309.32 262.874129 
L 310.56 262.04609 
L 311.8 281.919036 
L 313.04 276.12276 
L 314.28 240.517065 
L 315.52 271.154524 
L 316.76 267.014326 
L 318 248.797459 
L 319.24 262.874129 
L 320.48 247.969419 
L 321.72 253.765696 
L 322.96 271.982563 
L 324.2 272.810602 
L 325.44 256.249814 
L 326.68 266.186287 
L 327.92 210.707645 
L 329.16 293.511588 
L 330.4 272.810602 
L 331.64 244.657262 
L 332.88 291.02747 
L 334.12 280.262957 
L 335.36 295.167667 
L 336.6 229.752552 
L 337.84 286.887273 
L 339.08 235.548828 
L 340.32 237.204907 
L 341.56 267.014326 
L 342.8 303.448061 
L 344.04 262.874129 
L 345.28 293.511588 
L 346.52 270.326484 
L 347.76 234.720789 
L 349 291.855509 
L 350.24 216.503921 
L 351.48 219.816079 
L 352.72 252.937656 
L 353.96 218.988039 
L 355.2 274.466681 
L 356.44 284.403154 
L 357.68 290.19943 
L 358.92 252.109617 
L 360.16 271.982563 
L 361.4 228.096473 
L 362.64 219.816079 
L 363.88 272.810602 
L 365.12 266.186287 
L 366.36 289.371391 
L 367.6 233.892749 
L 368.84 246.313341 
L 370.08 166.821555 
L 371.32 249.625498 
L 372.56 244.657262 
L 373.8 234.720789 
L 375.04 235.548828 
L 376.28 233.892749 
L 377.52 264.530208 
L 378.76 235.548828 
L 380 237.204907 
L 381.24 258.733932 
L 382.48 262.04609 
L 383.72 234.720789 
L 384.96 223.128237 
L 386.2 238.032946 
L 387.44 182.554304 
L 388.68 175.10195 
L 389.92 250.453538 
L 391.16 210.707645 
L 392.4 249.625498 
L 393.64 208.223527 
L 394.88 251.281577 
L 396.12 256.249814 
L 398.6 206.567448 
L 399.84 191.662738 
L 401.08 252.937656 
L 402.32 219.816079 
L 403.56 252.937656 
L 404.8 220.644118 
L 406.04 254.593735 
L 407.28 224.784315 
L 408.52 198.287054 
L 409.76 203.25529 
L 411 257.905893 
L 412.24 247.969419 
L 413.48 226.440394 
L 414.72 199.943133 
L 415.96 211.535685 
L 417.2 230.580591 
L 418.44 269.498445 
L 419.68 205.739409 
L 420.92 215.675882 
L 422.16 202.427251 
L 423.4 222.300197 
L 424.64 234.720789 
L 425.88 208.223527 
L 427.12 223.128237 
L 428.36 221.472158 
L 429.6 204.08333 
L 430.84 273.638642 
L 432.08 217.331961 
L 433.32 216.503921 
L 434.56 170.133713 
L 435.8 207.395487 
L 437.04 194.974896 
L 438.28 219.816079 
L 439.52 193.318817 
L 440.76 227.268434 
L 442 179.242147 
L 444.48 233.892749 
L 445.72 190.834699 
L 446.96 214.019803 
L 448.2 185.866462 
L 449.44 180.070186 
L 451.92 237.204907 
L 453.16 156.885082 
L 454.4 218.988039 
L 455.64 141.980372 
L 456.88 175.929989 
L 458.12 218.988039 
L 459.36 159.3692 
L 460.6 170.961752 
L 461.84 107.202716 
L 463.08 187.522541 
L 464.32 118.795268 
L 466.8 165.165476 
L 468.04 180.898226 
L 470.52 109.686835 
L 471.76 154.400964 
L 473 179.242147 
L 474.24 162.681358 
L 475.48 299.307864 
L 476.72 305.10414 
L 477.96 327.461205 
L 479.2 316.696692 
L 480.44 312.556495 
L 481.68 348.162191 
L 482.92 287.715312 
L 484.16 244.657262 
L 485.4 291.855509 
L 486.64 291.02747 
L 487.88 268.670405 
L 489.12 320.00885 
L 490.36 308.416298 
L 491.6 318.352771 
L 492.84 272.810602 
L 494.08 305.93218 
L 495.32 254.593735 
L 496.56 294.339628 
L 497.8 310.900416 
L 499.04 262.04609 
L 500.28 286.059233 
L 501.52 276.9508 
L 502.76 259.561972 
L 504 291.02747 
L 505.24 305.93218 
L 506.48 300.963943 
L 507.72 280.262957 
L 508.96 286.887273 
L 510.2 283.575115 
L 511.44 308.416298 
L 512.68 292.683549 
L 513.92 324.977087 
L 515.16 307.588258 
L 516.4 280.262957 
L 517.64 342.365915 
L 518.88 350.646309 
L 520.12 281.919036 
L 521.36 271.982563 
L 522.6 290.19943 
L 523.84 288.543352 
L 525.08 256.249814 
L 526.32 267.842366 
L 527.56 288.543352 
L 528.8 289.371391 
L 530.04 286.059233 
L 531.28 277.778839 
L 532.52 257.077853 
L 533.76 282.747076 
L 535 219.816079 
L 536.24 288.543352 
L 537.48 287.715312 
L 538.72 329.945323 
L 539.96 290.19943 
L 541.2 324.977087 
L 542.44 262.874129 
L 543.68 303.448061 
L 544.92 248.797459 
L 546.16 265.358248 
L 547.4 250.453538 
L 548.64 282.747076 
L 549.88 256.249814 
L 551.12 305.93218 
L 552.36 297.651785 
L 553.6 318.352771 
L 554.84 315.040613 
L 556.08 268.670405 
L 557.32 276.12276 
L 558.56 248.797459 
L 559.8 229.752552 
L 561.04 310.072377 
L 562.28 257.905893 
L 563.52 250.453538 
L 564.76 312.556495 
L 566 257.905893 
L 567.24 320.00885 
L 568.48 289.371391 
L 569.72 292.683549 
L 570.96 253.765696 
L 572.2 321.664929 
L 573.44 342.365915 
L 574.68 313.384535 
L 575.92 301.791982 
L 577.16 312.556495 
L 578.4 256.249814 
L 579.64 312.556495 
L 580.88 302.620022 
L 582.12 260.390011 
L 583.36 271.154524 
L 584.6 294.339628 
L 585.84 285.231194 
L 587.08 282.747076 
L 588.32 260.390011 
L 589.56 272.810602 
L 590.8 281.919036 
L 592.04 243.829222 
L 593.28 255.421774 
L 594.52 286.887273 
L 595.76 312.556495 
L 597 286.887273 
L 598.24 286.887273 
L 599.48 293.511588 
L 600.72 253.765696 
L 601.96 286.059233 
L 603.2 256.249814 
L 604.44 295.167667 
L 605.68 300.963943 
L 606.92 247.14138 
L 608.16 270.326484 
L 609.4 280.262957 
L 610.64 266.186287 
L 611.88 270.326484 
L 613.12 249.625498 
L 614.36 294.339628 
L 615.6 279.434918 
L 616.84 276.9508 
L 618.08 258.733932 
L 619.32 292.683549 
L 620.56 294.339628 
L 621.8 234.720789 
L 623.04 289.371391 
L 624.28 286.887273 
L 625.52 283.575115 
L 626.76 281.090997 
L 628 259.561972 
L 629.24 231.408631 
L 630.48 284.403154 
L 631.72 268.670405 
L 632.96 328.289244 
L 634.2 318.352771 
L 635.44 285.231194 
L 636.68 293.511588 
L 637.92 289.371391 
L 639.16 220.644118 
L 640.4 227.268434 
L 641.64 288.543352 
L 642.88 285.231194 
L 644.12 252.109617 
L 645.36 262.04609 
L 646.6 238.032946 
L 647.84 266.186287 
L 649.08 284.403154 
L 650.32 297.651785 
L 651.56 264.530208 
L 652.8 288.543352 
L 654.04 289.371391 
L 655.28 247.14138 
L 656.52 267.842366 
L 657.76 236.376867 
L 659 287.715312 
L 660.24 238.860986 
L 661.48 245.485301 
L 662.72 258.733932 
L 663.96 293.511588 
L 665.2 262.04609 
L 666.44 276.12276 
L 667.68 277.778839 
L 668.92 286.887273 
L 670.16 291.02747 
L 671.4 305.93218 
L 672.64 246.313341 
L 673.88 283.575115 
L 675.12 314.212574 
L 676.36 217.331961 
L 677.6 222.300197 
L 678.84 276.12276 
L 680.08 307.588258 
L 681.32 269.498445 
L 682.56 244.657262 
L 683.8 268.670405 
L 685.04 278.606878 
L 686.28 272.810602 
L 687.52 284.403154 
L 688.76 235.548828 
L 690 262.04609 
L 691.24 252.109617 
L 692.48 263.702169 
L 693.72 261.21805 
L 694.96 254.593735 
L 696.2 262.874129 
L 697.44 248.797459 
L 698.68 289.371391 
L 699.92 257.905893 
L 701.16 240.517065 
L 702.4 254.593735 
L 703.64 235.548828 
L 704.88 223.956276 
L 706.12 233.06471 
L 707.36 237.204907 
L 708.6 223.128237 
L 709.84 250.453538 
L 711.08 271.154524 
L 713.56 279.434918 
L 714.8 199.115093 
L 716.04 187.522541 
L 717.28 237.204907 
L 718.52 244.657262 
L 719.76 190.006659 
L 721 253.765696 
L 722.24 228.924513 
L 723.48 264.530208 
L 724.72 243.829222 
L 725.96 294.339628 
L 727.2 252.109617 
L 728.44 236.376867 
L 729.68 247.969419 
L 730.92 229.752552 
L 732.16 240.517065 
L 733.4 267.842366 
L 734.64 217.331961 
L 735.88 223.956276 
L 737.12 245.485301 
L 738.36 257.905893 
L 739.6 257.905893 
L 740.84 209.879606 
L 742.08 252.109617 
L 743.32 182.554304 
L 744.56 214.847842 
L 745.8 217.331961 
L 747.04 218.16 
L 748.28 199.943133 
L 749.52 194.146857 
L 750.76 202.427251 
L 752 218.988039 
L 753.24 233.892749 
L 754.48 188.350581 
L 755.72 223.956276 
L 756.96 234.720789 
L 758.2 263.702169 
L 759.44 233.892749 
L 760.68 208.223527 
L 761.92 209.051566 
L 763.16 210.707645 
L 764.4 166.821555 
L 765.64 238.032946 
L 766.88 206.567448 
L 768.12 195.802935 
L 769.36 196.630975 
L 770.6 229.752552 
L 771.84 239.689025 
L 773.08 195.802935 
L 774.32 143.636451 
L 775.56 204.08333 
L 776.8 217.331961 
L 778.04 232.23667 
L 779.28 219.816079 
L 780.52 217.331961 
L 781.76 202.427251 
L 783 141.980372 
L 785.48 251.281577 
L 786.72 221.472158 
L 787.96 206.567448 
L 789.2 181.726265 
L 790.44 167.649595 
L 791.68 214.019803 
L 792.92 202.427251 
L 794.16 213.191763 
L 795.4 225.612355 
L 796.64 212.363724 
L 797.88 150.260767 
L 799.12 203.25529 
L 800.36 194.146857 
L 801.6 168.477634 
L 802.84 204.911369 
L 804.08 195.802935 
L 805.32 210.707645 
L 806.56 199.115093 
L 809.04 197.459014 
L 810.28 135.356057 
L 811.52 185.038423 
L 812.76 148.604688 
L 814 192.490778 
L 815.24 151.916846 
L 816.48 139.496254 
L 817.72 132.043899 
L 818.96 170.961752 
L 820.2 154.400964 
L 821.44 155.229003 
L 822.68 157.713122 
L 823.92 129.559781 
L 825.16 142.808412 
L 826.4 132.043899 
L 828.88 170.961752 
L 830.12 137.012136 
L 831.36 286.887273 
L 832.6 235.548828 
L 833.84 284.403154 
L 835.08 248.797459 
L 836.32 292.683549 
L 837.56 236.376867 
L 838.8 238.860986 
L 840.04 271.154524 
L 841.28 240.517065 
L 842.52 230.580591 
L 843.76 295.167667 
L 845 239.689025 
L 846.24 238.032946 
L 847.48 276.9508 
L 848.72 304.276101 
L 849.96 236.376867 
L 851.2 225.612355 
L 852.44 268.670405 
L 853.68 286.059233 
L 854.92 269.498445 
L 856.16 275.294721 
L 857.4 262.04609 
L 858.64 284.403154 
L 859.88 270.326484 
L 861.12 270.326484 
L 862.36 322.492968 
L 863.6 260.390011 
L 864.84 333.257481 
L 866.08 289.371391 
L 867.32 272.810602 
L 868.56 262.874129 
L 869.8 244.657262 
L 871.04 305.10414 
L 872.28 221.472158 
L 873.52 283.575115 
L 874.76 285.231194 
L 876 316.696692 
L 877.24 313.384535 
L 878.48 295.167667 
L 879.72 292.683549 
L 880.96 224.784315 
L 882.2 239.689025 
L 883.44 242.173143 
L 884.68 272.810602 
L 885.92 277.778839 
L 887.16 255.421774 
L 888.4 268.670405 
L 889.64 289.371391 
L 890.88 276.9508 
L 892.12 247.969419 
L 893.36 257.905893 
L 894.6 266.186287 
L 895.84 288.543352 
L 897.08 287.715312 
L 898.32 256.249814 
L 899.56 229.752552 
L 900.8 243.829222 
L 902.04 247.14138 
L 903.28 264.530208 
L 904.52 306.760219 
L 905.76 248.797459 
L 907 275.294721 
L 908.24 281.919036 
L 909.48 246.313341 
L 910.72 315.868653 
L 911.96 269.498445 
L 913.2 290.19943 
L 914.44 212.363724 
L 915.68 286.059233 
L 916.92 245.485301 
L 918.16 215.675882 
L 919.4 269.498445 
L 920.64 255.421774 
L 921.88 228.096473 
L 923.12 269.498445 
L 924.36 247.14138 
L 925.6 209.051566 
L 926.84 254.593735 
L 928.08 264.530208 
L 929.32 311.728456 
L 930.56 244.657262 
L 931.8 270.326484 
L 933.04 267.842366 
L 934.28 275.294721 
L 935.52 294.339628 
L 936.76 233.06471 
L 938 263.702169 
L 939.24 267.842366 
L 940.48 262.874129 
L 941.72 260.390011 
L 942.96 291.02747 
L 944.2 266.186287 
L 945.44 281.919036 
L 946.68 242.173143 
L 947.92 259.561972 
L 949.16 216.503921 
L 950.4 212.363724 
L 951.64 257.077853 
L 952.88 234.720789 
L 954.12 266.186287 
L 955.36 270.326484 
L 956.6 238.032946 
L 957.84 267.014326 
L 959.08 252.109617 
L 960.32 302.620022 
L 961.56 247.969419 
L 962.8 260.390011 
L 964.04 209.051566 
L 965.28 250.453538 
L 966.52 214.019803 
L 967.76 269.498445 
L 969 236.376867 
L 970.24 248.797459 
L 971.48 252.109617 
L 972.72 271.982563 
L 973.96 238.860986 
L 975.2 227.268434 
L 976.44 268.670405 
L 977.68 290.19943 
L 978.92 240.517065 
L 980.16 267.842366 
L 981.4 230.580591 
L 982.64 249.625498 
L 983.88 290.19943 
L 985.12 222.300197 
L 986.36 227.268434 
L 987.6 234.720789 
L 988.84 271.982563 
L 990.08 199.115093 
L 991.32 243.001183 
L 992.56 248.797459 
L 993.8 261.21805 
L 995.04 238.860986 
L 996.28 252.937656 
L 997.52 247.14138 
L 998.76 240.517065 
L 1000 228.096473 
L 1001.24 265.358248 
L 1002.48 200.771172 
L 1003.72 218.16 
L 1004.96 200.771172 
L 1006.2 204.911369 
L 1007.44 250.453538 
L 1008.68 250.453538 
L 1009.92 236.376867 
L 1011.16 148.604688 
L 1012.4 201.599211 
L 1013.64 233.06471 
L 1014.88 185.866462 
L 1016.12 200.771172 
L 1017.36 204.08333 
L 1018.6 179.242147 
L 1019.84 216.503921 
L 1021.08 194.974896 
L 1022.32 221.472158 
L 1023.56 164.337437 
L 1024.8 220.644118 
L 1026.04 191.662738 
L 1027.28 231.408631 
L 1028.52 250.453538 
L 1029.76 157.713122 
L 1031 198.287054 
L 1032.24 207.395487 
L 1033.48 199.943133 
L 1034.72 210.707645 
L 1035.96 215.675882 
L 1037.2 175.929989 
L 1038.44 169.305674 
L 1039.68 161.853319 
L 1040.92 178.414107 
L 1042.16 177.586068 
L 1043.4 156.057043 
L 1044.64 154.400964 
L 1045.88 169.305674 
L 1047.12 194.974896 
L 1048.36 130.38782 
L 1049.6 151.088806 
L 1050.84 152.744885 
L 1052.08 165.165476 
L 1053.32 240.517065 
L 1054.56 252.937656 
L 1055.8 276.9508 
L 1057.04 229.752552 
L 1058.28 281.090997 
L 1059.52 252.109617 
L 1060.76 268.670405 
L 1062 292.683549 
L 1063.24 241.345104 
L 1064.48 225.612355 
L 1065.72 272.810602 
L 1066.96 238.032946 
L 1068.2 270.326484 
L 1069.44 238.860986 
L 1070.68 251.281577 
L 1071.92 276.12276 
L 1073.16 285.231194 
L 1074.4 260.390011 
L 1075.64 205.739409 
L 1076.88 246.313341 
L 1078.12 249.625498 
L 1079.36 233.892749 
L 1080.6 256.249814 
L 1081.84 247.969419 
L 1083.08 286.059233 
L 1084.32 261.21805 
L 1085.56 283.575115 
L 1086.8 241.345104 
L 1088.04 262.04609 
L 1089.28 232.23667 
L 1090.52 255.421774 
L 1091.76 281.919036 
L 1093 224.784315 
L 1094.24 266.186287 
L 1095.48 255.421774 
L 1096.72 283.575115 
L 1097.96 238.860986 
L 1099.2 233.06471 
L 1100.44 278.606878 
L 1101.68 226.440394 
L 1102.92 253.765696 
L 1104.16 238.860986 
L 1105.4 280.262957 
L 1106.64 305.93218 
L 1107.88 242.173143 
L 1109.12 208.223527 
L 1110.36 277.778839 
L 1111.6 262.874129 
L 1112.84 222.300197 
L 1114.08 286.059233 
L 1115.32 265.358248 
L 1116.56 222.300197 
L 1117.8 256.249814 
L 1119.04 245.485301 
L 1120.28 288.543352 
L 1121.52 223.956276 
L 1122.76 265.358248 
L 1124 235.548828 
L 1125.24 263.702169 
L 1126.48 264.530208 
L 1127.72 243.829222 
L 1128.96 233.06471 
L 1130.2 252.937656 
L 1131.44 233.892749 
L 1132.68 223.956276 
L 1133.92 215.675882 
L 1135.16 272.810602 
L 1136.4 253.765696 
L 1137.64 228.924513 
L 1138.88 255.421774 
L 1140.12 238.032946 
L 1141.36 233.06471 
L 1142.6 261.21805 
L 1143.84 240.517065 
L 1145.08 255.421774 
L 1146.32 301.791982 
L 1147.56 226.440394 
L 1148.8 235.548828 
L 1150.04 278.606878 
L 1151.28 209.051566 
L 1152.52 268.670405 
L 1153.76 235.548828 
L 1155 279.434918 
L 1156.24 214.847842 
L 1157.48 266.186287 
L 1158.72 272.810602 
L 1159.96 232.23667 
L 1161.2 233.892749 
L 1162.44 292.683549 
L 1163.68 180.898226 
L 1164.92 224.784315 
L 1166.16 256.249814 
L 1167.4 270.326484 
L 1168.64 248.797459 
L 1169.88 250.453538 
L 1171.12 275.294721 
L 1172.36 211.535685 
L 1173.6 202.427251 
L 1174.84 224.784315 
L 1176.08 234.720789 
L 1177.32 266.186287 
L 1178.56 248.797459 
L 1179.8 221.472158 
L 1181.04 267.842366 
L 1182.28 250.453538 
L 1183.52 270.326484 
L 1184.76 244.657262 
L 1186 279.434918 
L 1187.24 216.503921 
L 1188.48 251.281577 
L 1189.72 276.9508 
L 1190.96 277.778839 
L 1192.2 256.249814 
L 1193.44 248.797459 
L 1194.68 198.287054 
L 1195.92 243.001183 
L 1197.16 209.879606 
L 1198.4 252.937656 
L 1199.64 223.128237 
L 1200.88 279.434918 
L 1202.12 242.173143 
L 1203.36 197.459014 
L 1204.6 243.829222 
L 1205.84 237.204907 
L 1207.08 241.345104 
L 1208.32 243.829222 
L 1209.56 300.963943 
L 1210.8 226.440394 
L 1212.04 265.358248 
L 1213.28 267.014326 
L 1214.52 223.128237 
L 1215.76 256.249814 
L 1217 211.535685 
L 1218.24 222.300197 
L 1219.48 223.956276 
L 1220.72 217.331961 
L 1221.96 261.21805 
L 1223.2 238.860986 
L 1224.44 247.969419 
L 1225.68 254.593735 
L 1226.92 225.612355 
L 1228.16 277.778839 
L 1229.4 228.924513 
L 1230.64 240.517065 
L 1231.88 201.599211 
L 1233.12 230.580591 
L 1234.36 222.300197 
L 1235.6 199.943133 
L 1236.84 242.173143 
L 1238.08 252.109617 
L 1239.32 186.694502 
L 1240.56 233.892749 
L 1241.8 205.739409 
L 1243.04 218.16 
L 1244.28 203.25529 
L 1245.52 245.485301 
L 1246.76 223.956276 
L 1248 207.395487 
L 1249.24 222.300197 
L 1250.48 187.522541 
L 1251.72 205.739409 
L 1252.96 214.847842 
L 1254.2 180.898226 
L 1255.44 190.834699 
L 1256.68 175.929989 
L 1257.92 221.472158 
L 1259.16 209.879606 
L 1260.4 218.988039 
L 1261.64 186.694502 
L 1262.88 157.713122 
L 1264.12 150.260767 
L 1266.6 218.16 
L 1267.84 199.943133 
L 1269.08 193.318817 
L 1270.32 177.586068 
L 1271.56 194.974896 
L 1274.04 157.713122 
L 1275.28 159.3692 
L 1276.52 179.242147 
L 1277.76 172.617831 
L 1279 83.189573 
L 1280.24 170.961752 
L 1281.48 185.038423 
L 1282.72 170.133713 
L 1283.96 150.260767 
L 1285.2 167.649595 
L 1286.44 80.705455 
L 1287.68 309.244337 
L 1288.92 255.421774 
L 1290.16 284.403154 
L 1291.4 283.575115 
L 1292.64 287.715312 
L 1293.88 263.702169 
L 1295.12 225.612355 
L 1296.36 249.625498 
L 1297.6 315.868653 
L 1298.84 275.294721 
L 1300.08 298.479825 
L 1301.32 292.683549 
L 1302.56 298.479825 
L 1303.8 295.995706 
L 1305.04 300.135904 
L 1306.28 326.633165 
L 1307.52 290.19943 
L 1308.76 286.059233 
L 1310 260.390011 
L 1311.24 267.842366 
L 1312.48 286.059233 
L 1313.72 258.733932 
L 1314.96 325.805126 
L 1316.2 279.434918 
L 1317.44 286.059233 
L 1318.68 322.492968 
L 1319.92 271.982563 
L 1321.16 292.683549 
L 1322.4 250.453538 
L 1323.64 235.548828 
L 1324.88 285.231194 
L 1326.12 256.249814 
L 1327.36 310.072377 
L 1328.6 316.696692 
L 1329.84 276.9508 
L 1331.08 348.162191 
L 1332.32 286.887273 
L 1333.56 258.733932 
L 1334.8 305.10414 
L 1336.04 227.268434 
L 1337.28 222.300197 
L 1338.52 296.823746 
L 1339.76 308.416298 
L 1341 309.244337 
L 1342.24 263.702169 
L 1343.48 270.326484 
L 1344.72 294.339628 
L 1345.96 341.537875 
L 1347.2 281.090997 
L 1348.44 273.638642 
L 1349.68 263.702169 
L 1350.92 301.791982 
L 1352.16 273.638642 
L 1353.4 278.606878 
L 1354.64 291.855509 
L 1355.88 280.262957 
L 1357.12 294.339628 
L 1358.36 239.689025 
L 1359.6 286.059233 
L 1360.84 290.19943 
L 1362.08 260.390011 
L 1363.32 295.167667 
L 1365.8 257.077853 
L 1367.04 293.511588 
L 1368.28 276.9508 
L 1369.52 317.524732 
L 1370.76 290.19943 
L 1372 298.479825 
L 1373.24 301.791982 
L 1374.48 261.21805 
L 1375.72 310.072377 
L 1376.96 267.014326 
L 1378.2 286.059233 
L 1379.44 262.04609 
L 1380.68 266.186287 
L 1381.92 208.223527 
L 1383.16 277.778839 
L 1384.4 276.9508 
L 1385.64 275.294721 
L 1386.88 258.733932 
L 1388.12 248.797459 
L 1389.36 274.466681 
L 1390.6 241.345104 
L 1391.84 255.421774 
L 1393.08 272.810602 
L 1394.32 257.905893 
L 1395.56 258.733932 
L 1396.8 245.485301 
L 1398.04 310.900416 
L 1399.28 257.077853 
L 1400.52 293.511588 
L 1401.76 278.606878 
L 1403 253.765696 
L 1404.24 267.842366 
L 1405.48 238.860986 
L 1406.72 295.167667 
L 1407.96 321.664929 
L 1409.2 276.12276 
L 1410.44 296.823746 
L 1411.68 232.23667 
L 1412.92 238.032946 
L 1414.16 340.709836 
L 1415.4 279.434918 
L 1416.64 247.14138 
L 1417.88 255.421774 
L 1419.12 280.262957 
L 1420.36 239.689025 
L 1421.6 287.715312 
L 1422.84 325.805126 
L 1424.08 280.262957 
L 1425.32 275.294721 
L 1426.56 251.281577 
L 1427.8 280.262957 
L 1429.04 226.440394 
L 1430.28 328.289244 
L 1431.52 243.001183 
L 1432.76 286.887273 
L 1434 269.498445 
L 1435.24 293.511588 
L 1436.48 243.001183 
L 1437.72 308.416298 
L 1438.96 319.180811 
L 1440.2 238.032946 
L 1441.44 312.556495 
L 1442.68 301.791982 
L 1443.92 254.593735 
L 1445.16 261.21805 
L 1446.4 233.892749 
L 1447.64 201.599211 
L 1448.88 272.810602 
L 1450.12 254.593735 
L 1451.36 267.014326 
L 1452.6 346.506112 
L 1453.84 291.855509 
L 1455.08 329.945323 
L 1456.32 270.326484 
L 1457.56 317.524732 
L 1458.8 262.874129 
L 1460.04 221.472158 
L 1461.28 311.728456 
L 1462.52 260.390011 
L 1463.76 257.077853 
L 1465 261.21805 
L 1466.24 264.530208 
L 1467.48 226.440394 
L 1468.72 289.371391 
L 1469.96 270.326484 
L 1471.2 246.313341 
L 1472.44 301.791982 
L 1473.68 287.715312 
L 1474.92 300.963943 
L 1476.16 238.860986 
L 1477.4 270.326484 
L 1478.64 263.702169 
L 1479.88 270.326484 
L 1481.12 279.434918 
L 1482.36 300.135904 
L 1483.6 255.421774 
L 1484.84 267.014326 
L 1486.08 286.887273 
L 1487.32 284.403154 
L 1488.56 238.032946 
L 1489.8 243.829222 
L 1491.04 246.313341 
L 1492.28 232.23667 
L 1493.52 245.485301 
L 1494.76 271.982563 
L 1496 239.689025 
L 1497.24 223.956276 
L 1499.72 286.059233 
L 1500.96 239.689025 
L 1502.2 267.014326 
L 1503.44 284.403154 
L 1504.68 269.498445 
L 1505.92 263.702169 
L 1507.16 274.466681 
L 1508.4 235.548828 
L 1509.64 213.191763 
L 1510.88 279.434918 
L 1512.12 292.683549 
L 1513.36 261.21805 
L 1514.6 243.829222 
L 1515.84 249.625498 
L 1517.08 303.448061 
L 1518.32 208.223527 
L 1519.56 214.847842 
L 1520.8 192.490778 
L 1522.04 294.339628 
L 1523.28 257.077853 
L 1524.52 202.427251 
L 1525.76 244.657262 
L 1527 251.281577 
L 1528.24 257.077853 
L 1529.48 260.390011 
L 1530.72 254.593735 
L 1531.96 228.096473 
L 1533.2 226.440394 
L 1534.44 252.937656 
L 1535.68 268.670405 
L 1536.92 238.032946 
L 1538.16 189.17862 
L 1539.4 234.720789 
L 1540.64 242.173143 
L 1541.88 240.517065 
L 1543.12 241.345104 
L 1544.36 183.382344 
L 1545.6 228.096473 
L 1546.84 186.694502 
L 1548.08 223.128237 
L 1549.32 169.305674 
L 1550.56 239.689025 
L 1551.8 256.249814 
L 1553.04 186.694502 
L 1554.28 262.874129 
L 1555.52 233.06471 
L 1556.76 195.802935 
L 1558 219.816079 
L 1559.24 238.032946 
L 1560.48 220.644118 
L 1561.72 240.517065 
L 1562.96 262.874129 
L 1564.2 212.363724 
L 1565.44 214.019803 
L 1566.68 231.408631 
L 1569.16 229.752552 
L 1570.4 177.586068 
L 1571.64 174.27391 
L 1572.88 229.752552 
L 1574.12 230.580591 
L 1575.36 149.432727 
L 1576.6 262.04609 
L 1577.84 193.318817 
L 1579.08 186.694502 
L 1580.32 151.088806 
L 1581.56 195.802935 
L 1582.8 203.25529 
L 1584.04 173.445871 
L 1585.28 208.223527 
L 1586.52 201.599211 
L 1587.76 186.694502 
L 1589 211.535685 
L 1590.24 196.630975 
L 1591.48 166.821555 
L 1592.72 174.27391 
L 1593.96 170.133713 
L 1595.2 161.025279 
L 1596.44 195.802935 
L 1597.68 158.541161 
L 1598.92 148.604688 
L 1600.16 158.541161 
L 1601.4 182.554304 
L 1602.64 169.305674 
L 1603.88 152.744885 
L 1605.12 189.17862 
L 1606.36 170.961752 
L 1607.6 142.808412 
L 1608.84 186.694502 
L 1610.08 185.038423 
L 1611.32 161.025279 
L 1612.56 128.731742 
L 1613.8 143.636451 
L 1615.04 141.152333 
L 1616.28 175.929989 
L 1617.52 146.948609 
L 1618.76 122.935465 
L 1620 169.305674 
L 1621.24 229.752552 
L 1621.24 229.752552 
" clip-path="url(#pbdee4391aa)" style="fill: none; stroke: #1f77b4; stroke-width: 1.5; stroke-linecap: square"/>
   </g>
   <g id="patch_3">
    <path d="M 225 384.48 
L 225 51.84 
" style="fill: none; stroke: #000000; stroke-width: 0.8; stroke-linejoin: miter; stroke-linecap: square"/>
   </g>
   <g id="patch_4">
    <path d="M 1620 384.48 
L 1620 51.84 
" style="fill: none; stroke: #000000; stroke-width: 0.8; stroke-linejoin: miter; stroke-linecap: square"/>
   </g>
   <g id="patch_5">
    <path d="M 225 384.48 
L 1620 384.48 
" style="fill: none; stroke: #000000; stroke-width: 0.8; stroke-linejoin: miter; stroke-linecap: square"/>
   </g>
   <g id="patch_6">
    <path d="M 225 51.84 
L 1620 51.84 
" style="fill: none; stroke: #000000; stroke-width: 0.8; stroke-linejoin: miter; stroke-linecap: square"/>
   </g>
   <g id="legend_1">
    <g id="patch_7">
     <path d="M 1396.125 92.660625 
L 1607.4 92.660625 
Q 1611 92.660625 1611 89.060625 
L 1611 64.44 
Q 1611 60.84 1607.4 60.84 
L 1396.125 60.84 
Q 1392.525 60.84 1392.525 64.44 
L 1392.525 89.060625 
Q 1392.525 92.660625 1396.125 92.660625 
z
" style="fill: #ffffff; opacity: 0.8; stroke: #cccccc; stroke-linejoin: miter"/>
    </g>
    <g id="line2d_16">
     <path d="M 1399.725 75.417187 
L 1417.725 75.417187 
L 1435.725 75.417187 
" style="fill: none; stroke: #1f77b4; stroke-width: 1.5; stroke-linecap: square"/>
    </g>
    <g id="text_17">
     <!-- Sensor 2 sem SG -->
     <g transform="translate(1450.125 81.717187)scale(0.18 -0.18)">
      <defs>
       <path id="DejaVuSans-6d" d="M 3328 2828 
Q 3544 3216 3844 3400 
Q 4144 3584 4550 3584 
Q 5097 3584 5394 3201 
Q 5691 2819 5691 2113 
L 5691 0 
L 5113 0 
L 5113 2094 
Q 5113 2597 4934 2840 
Q 4756 3084 4391 3084 
Q 3944 3084 3684 2787 
Q 3425 2491 3425 1978 
L 3425 0 
L 2847 0 
L 2847 2094 
Q 2847 2600 2669 2842 
Q 2491 3084 2119 3084 
Q 1678 3084 1418 2786 
Q 1159 2488 1159 1978 
L 1159 0 
L 581 0 
L 581 3500 
L 1159 3500 
L 1159 2956 
Q 1356 3278 1631 3431 
Q 1906 3584 2284 3584 
Q 2666 3584 2933 3390 
Q 3200 3197 3328 2828 
z
" transform="scale(0.015625)"/>
       <path id="DejaVuSans-47" d="M 3809 666 
L 3809 1919 
L 2778 1919 
L 2778 2438 
L 4434 2438 
L 4434 434 
Q 4069 175 3628 42 
Q 3188 -91 2688 -91 
Q 1594 -91 976 548 
Q 359 1188 359 2328 
Q 359 3472 976 4111 
Q 1594 4750 2688 4750 
Q 3144 4750 3555 4637 
Q 3966 4525 4313 4306 
L 4313 3634 
Q 3963 3931 3569 4081 
Q 3175 4231 2741 4231 
Q 1884 4231 1454 3753 
Q 1025 3275 1025 2328 
Q 1025 1384 1454 906 
Q 1884 428 2741 428 
Q 3075 428 3337 486 
Q 3600 544 3809 666 
z
" transform="scale(0.015625)"/>
      </defs>
      <use xlink:href="#DejaVuSans-53"/>
      <use xlink:href="#DejaVuSans-65" x="63.476562"/>
      <use xlink:href="#DejaVuSans-6e" x="125"/>
      <use xlink:href="#DejaVuSans-73" x="188.378906"/>
      <use xlink:href="#DejaVuSans-6f" x="240.478516"/>
      <use xlink:href="#DejaVuSans-72" x="301.660156"/>
      <use xlink:href="#DejaVuSans-20" x="342.773438"/>
      <use xlink:href="#DejaVuSans-32" x="374.560547"/>
      <use xlink:href="#DejaVuSans-20" x="438.183594"/>
      <use xlink:href="#DejaVuSans-73" x="469.970703"/>
      <use xlink:href="#DejaVuSans-65" x="522.070312"/>
      <use xlink:href="#DejaVuSans-6d" x="583.59375"/>
      <use xlink:href="#DejaVuSans-20" x="681.005859"/>
      <use xlink:href="#DejaVuSans-53" x="712.792969"/>
      <use xlink:href="#DejaVuSans-47" x="776.269531"/>
     </g>
    </g>
   </g>
  </g>
 </g>
 <defs>
  <clipPath id="pbdee4391aa">
   <rect x="225" y="51.84" width="1395" height="332.64"/>
  </clipPath>
 </defs>
</svg>
