<?xml version="1.0" encoding="utf-8" standalone="no"?>
<!DOCTYPE svg PUBLIC "-//W3C//DTD SVG 1.1//EN"
  "http://www.w3.org/Graphics/SVG/1.1/DTD/svg11.dtd">
<svg xmlns:xlink="http://www.w3.org/1999/xlink" width="1800pt" height="432pt" viewBox="0 0 1800 432" xmlns="http://www.w3.org/2000/svg" version="1.1">
 <metadata>
  <rdf:RDF xmlns:dc="http://purl.org/dc/elements/1.1/" xmlns:cc="http://creativecommons.org/ns#" xmlns:rdf="http://www.w3.org/1999/02/22-rdf-syntax-ns#">
   <cc:Work>
    <dc:type rdf:resource="http://purl.org/dc/dcmitype/StillImage"/>
    <dc:date>2023-04-30T14:19:18.090420</dc:date>
    <dc:format>image/svg+xml</dc:format>
    <dc:creator>
     <cc:Agent>
      <dc:title>Matplotlib v3.5.3, https://matplotlib.org/</dc:title>
     </cc:Agent>
    </dc:creator>
   </cc:Work>
  </rdf:RDF>
 </metadata>
 <defs>
  <style type="text/css">*{stroke-linejoin: round; stroke-linecap: butt}</style>
 </defs>
 <g id="figure_1">
  <g id="patch_1">
   <path d="M 0 432 
L 1800 432 
L 1800 0 
L 0 0 
z
" style="fill: #ffffff"/>
  </g>
  <g id="axes_1">
   <g id="patch_2">
    <path d="M 225 384.48 
L 1620 384.48 
L 1620 51.84 
L 225 51.84 
z
" style="fill: #ffffff"/>
   </g>
   <g id="matplotlib.axis_1">
    <g id="xtick_1">
     <g id="line2d_1">
      <defs>
       <path id="m16d4eda8b3" d="M 0 0 
L 0 3.5 
" style="stroke: #000000; stroke-width: 0.8"/>
      </defs>
      <g>
       <use xlink:href="#m16d4eda8b3" x="237.4" y="384.48" style="stroke: #000000; stroke-width: 0.8"/>
      </g>
     </g>
     <g id="text_1">
      <!-- 0 -->
      <g transform="translate(231.67375 405.157188)scale(0.18 -0.18)">
       <defs>
        <path id="DejaVuSans-30" d="M 2034 4250 
Q 1547 4250 1301 3770 
Q 1056 3291 1056 2328 
Q 1056 1369 1301 889 
Q 1547 409 2034 409 
Q 2525 409 2770 889 
Q 3016 1369 3016 2328 
Q 3016 3291 2770 3770 
Q 2525 4250 2034 4250 
z
M 2034 4750 
Q 2819 4750 3233 4129 
Q 3647 3509 3647 2328 
Q 3647 1150 3233 529 
Q 2819 -91 2034 -91 
Q 1250 -91 836 529 
Q 422 1150 422 2328 
Q 422 3509 836 4129 
Q 1250 4750 2034 4750 
z
" transform="scale(0.015625)"/>
       </defs>
       <use xlink:href="#DejaVuSans-30"/>
      </g>
     </g>
    </g>
    <g id="xtick_2">
     <g id="line2d_2">
      <g>
       <use xlink:href="#m16d4eda8b3" x="485.4" y="384.48" style="stroke: #000000; stroke-width: 0.8"/>
      </g>
     </g>
     <g id="text_2">
      <!-- 200 -->
      <g transform="translate(468.22125 405.157188)scale(0.18 -0.18)">
       <defs>
        <path id="DejaVuSans-32" d="M 1228 531 
L 3431 531 
L 3431 0 
L 469 0 
L 469 531 
Q 828 903 1448 1529 
Q 2069 2156 2228 2338 
Q 2531 2678 2651 2914 
Q 2772 3150 2772 3378 
Q 2772 3750 2511 3984 
Q 2250 4219 1831 4219 
Q 1534 4219 1204 4116 
Q 875 4013 500 3803 
L 500 4441 
Q 881 4594 1212 4672 
Q 1544 4750 1819 4750 
Q 2544 4750 2975 4387 
Q 3406 4025 3406 3419 
Q 3406 3131 3298 2873 
Q 3191 2616 2906 2266 
Q 2828 2175 2409 1742 
Q 1991 1309 1228 531 
z
" transform="scale(0.015625)"/>
       </defs>
       <use xlink:href="#DejaVuSans-32"/>
       <use xlink:href="#DejaVuSans-30" x="63.623047"/>
       <use xlink:href="#DejaVuSans-30" x="127.246094"/>
      </g>
     </g>
    </g>
    <g id="xtick_3">
     <g id="line2d_3">
      <g>
       <use xlink:href="#m16d4eda8b3" x="733.4" y="384.48" style="stroke: #000000; stroke-width: 0.8"/>
      </g>
     </g>
     <g id="text_3">
      <!-- 400 -->
      <g transform="translate(716.22125 405.157188)scale(0.18 -0.18)">
       <defs>
        <path id="DejaVuSans-34" d="M 2419 4116 
L 825 1625 
L 2419 1625 
L 2419 4116 
z
M 2253 4666 
L 3047 4666 
L 3047 1625 
L 3713 1625 
L 3713 1100 
L 3047 1100 
L 3047 0 
L 2419 0 
L 2419 1100 
L 313 1100 
L 313 1709 
L 2253 4666 
z
" transform="scale(0.015625)"/>
       </defs>
       <use xlink:href="#DejaVuSans-34"/>
       <use xlink:href="#DejaVuSans-30" x="63.623047"/>
       <use xlink:href="#DejaVuSans-30" x="127.246094"/>
      </g>
     </g>
    </g>
    <g id="xtick_4">
     <g id="line2d_4">
      <g>
       <use xlink:href="#m16d4eda8b3" x="981.4" y="384.48" style="stroke: #000000; stroke-width: 0.8"/>
      </g>
     </g>
     <g id="text_4">
      <!-- 600 -->
      <g transform="translate(964.22125 405.157188)scale(0.18 -0.18)">
       <defs>
        <path id="DejaVuSans-36" d="M 2113 2584 
Q 1688 2584 1439 2293 
Q 1191 2003 1191 1497 
Q 1191 994 1439 701 
Q 1688 409 2113 409 
Q 2538 409 2786 701 
Q 3034 994 3034 1497 
Q 3034 2003 2786 2293 
Q 2538 2584 2113 2584 
z
M 3366 4563 
L 3366 3988 
Q 3128 4100 2886 4159 
Q 2644 4219 2406 4219 
Q 1781 4219 1451 3797 
Q 1122 3375 1075 2522 
Q 1259 2794 1537 2939 
Q 1816 3084 2150 3084 
Q 2853 3084 3261 2657 
Q 3669 2231 3669 1497 
Q 3669 778 3244 343 
Q 2819 -91 2113 -91 
Q 1303 -91 875 529 
Q 447 1150 447 2328 
Q 447 3434 972 4092 
Q 1497 4750 2381 4750 
Q 2619 4750 2861 4703 
Q 3103 4656 3366 4563 
z
" transform="scale(0.015625)"/>
       </defs>
       <use xlink:href="#DejaVuSans-36"/>
       <use xlink:href="#DejaVuSans-30" x="63.623047"/>
       <use xlink:href="#DejaVuSans-30" x="127.246094"/>
      </g>
     </g>
    </g>
    <g id="xtick_5">
     <g id="line2d_5">
      <g>
       <use xlink:href="#m16d4eda8b3" x="1229.4" y="384.48" style="stroke: #000000; stroke-width: 0.8"/>
      </g>
     </g>
     <g id="text_5">
      <!-- 800 -->
      <g transform="translate(1212.22125 405.157188)scale(0.18 -0.18)">
       <defs>
        <path id="DejaVuSans-38" d="M 2034 2216 
Q 1584 2216 1326 1975 
Q 1069 1734 1069 1313 
Q 1069 891 1326 650 
Q 1584 409 2034 409 
Q 2484 409 2743 651 
Q 3003 894 3003 1313 
Q 3003 1734 2745 1975 
Q 2488 2216 2034 2216 
z
M 1403 2484 
Q 997 2584 770 2862 
Q 544 3141 544 3541 
Q 544 4100 942 4425 
Q 1341 4750 2034 4750 
Q 2731 4750 3128 4425 
Q 3525 4100 3525 3541 
Q 3525 3141 3298 2862 
Q 3072 2584 2669 2484 
Q 3125 2378 3379 2068 
Q 3634 1759 3634 1313 
Q 3634 634 3220 271 
Q 2806 -91 2034 -91 
Q 1263 -91 848 271 
Q 434 634 434 1313 
Q 434 1759 690 2068 
Q 947 2378 1403 2484 
z
M 1172 3481 
Q 1172 3119 1398 2916 
Q 1625 2713 2034 2713 
Q 2441 2713 2670 2916 
Q 2900 3119 2900 3481 
Q 2900 3844 2670 4047 
Q 2441 4250 2034 4250 
Q 1625 4250 1398 4047 
Q 1172 3844 1172 3481 
z
" transform="scale(0.015625)"/>
       </defs>
       <use xlink:href="#DejaVuSans-38"/>
       <use xlink:href="#DejaVuSans-30" x="63.623047"/>
       <use xlink:href="#DejaVuSans-30" x="127.246094"/>
      </g>
     </g>
    </g>
    <g id="xtick_6">
     <g id="line2d_6">
      <g>
       <use xlink:href="#m16d4eda8b3" x="1477.4" y="384.48" style="stroke: #000000; stroke-width: 0.8"/>
      </g>
     </g>
     <g id="text_6">
      <!-- 1000 -->
      <g transform="translate(1454.495 405.157188)scale(0.18 -0.18)">
       <defs>
        <path id="DejaVuSans-31" d="M 794 531 
L 1825 531 
L 1825 4091 
L 703 3866 
L 703 4441 
L 1819 4666 
L 2450 4666 
L 2450 531 
L 3481 531 
L 3481 0 
L 794 0 
L 794 531 
z
" transform="scale(0.015625)"/>
       </defs>
       <use xlink:href="#DejaVuSans-31"/>
       <use xlink:href="#DejaVuSans-30" x="63.623047"/>
       <use xlink:href="#DejaVuSans-30" x="127.246094"/>
       <use xlink:href="#DejaVuSans-30" x="190.869141"/>
      </g>
     </g>
    </g>
    <g id="text_7">
     <!-- Ciclos -->
     <g transform="translate(890.197813 429.617188)scale(0.22 -0.22)">
      <defs>
       <path id="DejaVuSans-43" d="M 4122 4306 
L 4122 3641 
Q 3803 3938 3442 4084 
Q 3081 4231 2675 4231 
Q 1875 4231 1450 3742 
Q 1025 3253 1025 2328 
Q 1025 1406 1450 917 
Q 1875 428 2675 428 
Q 3081 428 3442 575 
Q 3803 722 4122 1019 
L 4122 359 
Q 3791 134 3420 21 
Q 3050 -91 2638 -91 
Q 1578 -91 968 557 
Q 359 1206 359 2328 
Q 359 3453 968 4101 
Q 1578 4750 2638 4750 
Q 3056 4750 3426 4639 
Q 3797 4528 4122 4306 
z
" transform="scale(0.015625)"/>
       <path id="DejaVuSans-69" d="M 603 3500 
L 1178 3500 
L 1178 0 
L 603 0 
L 603 3500 
z
M 603 4863 
L 1178 4863 
L 1178 4134 
L 603 4134 
L 603 4863 
z
" transform="scale(0.015625)"/>
       <path id="DejaVuSans-63" d="M 3122 3366 
L 3122 2828 
Q 2878 2963 2633 3030 
Q 2388 3097 2138 3097 
Q 1578 3097 1268 2742 
Q 959 2388 959 1747 
Q 959 1106 1268 751 
Q 1578 397 2138 397 
Q 2388 397 2633 464 
Q 2878 531 3122 666 
L 3122 134 
Q 2881 22 2623 -34 
Q 2366 -91 2075 -91 
Q 1284 -91 818 406 
Q 353 903 353 1747 
Q 353 2603 823 3093 
Q 1294 3584 2113 3584 
Q 2378 3584 2631 3529 
Q 2884 3475 3122 3366 
z
" transform="scale(0.015625)"/>
       <path id="DejaVuSans-6c" d="M 603 4863 
L 1178 4863 
L 1178 0 
L 603 0 
L 603 4863 
z
" transform="scale(0.015625)"/>
       <path id="DejaVuSans-6f" d="M 1959 3097 
Q 1497 3097 1228 2736 
Q 959 2375 959 1747 
Q 959 1119 1226 758 
Q 1494 397 1959 397 
Q 2419 397 2687 759 
Q 2956 1122 2956 1747 
Q 2956 2369 2687 2733 
Q 2419 3097 1959 3097 
z
M 1959 3584 
Q 2709 3584 3137 3096 
Q 3566 2609 3566 1747 
Q 3566 888 3137 398 
Q 2709 -91 1959 -91 
Q 1206 -91 779 398 
Q 353 888 353 1747 
Q 353 2609 779 3096 
Q 1206 3584 1959 3584 
z
" transform="scale(0.015625)"/>
       <path id="DejaVuSans-73" d="M 2834 3397 
L 2834 2853 
Q 2591 2978 2328 3040 
Q 2066 3103 1784 3103 
Q 1356 3103 1142 2972 
Q 928 2841 928 2578 
Q 928 2378 1081 2264 
Q 1234 2150 1697 2047 
L 1894 2003 
Q 2506 1872 2764 1633 
Q 3022 1394 3022 966 
Q 3022 478 2636 193 
Q 2250 -91 1575 -91 
Q 1294 -91 989 -36 
Q 684 19 347 128 
L 347 722 
Q 666 556 975 473 
Q 1284 391 1588 391 
Q 1994 391 2212 530 
Q 2431 669 2431 922 
Q 2431 1156 2273 1281 
Q 2116 1406 1581 1522 
L 1381 1569 
Q 847 1681 609 1914 
Q 372 2147 372 2553 
Q 372 3047 722 3315 
Q 1072 3584 1716 3584 
Q 2034 3584 2315 3537 
Q 2597 3491 2834 3397 
z
" transform="scale(0.015625)"/>
      </defs>
      <use xlink:href="#DejaVuSans-43"/>
      <use xlink:href="#DejaVuSans-69" x="69.824219"/>
      <use xlink:href="#DejaVuSans-63" x="97.607422"/>
      <use xlink:href="#DejaVuSans-6c" x="152.587891"/>
      <use xlink:href="#DejaVuSans-6f" x="180.371094"/>
      <use xlink:href="#DejaVuSans-73" x="241.552734"/>
     </g>
    </g>
   </g>
   <g id="matplotlib.axis_2">
    <g id="ytick_1">
     <g id="line2d_7">
      <defs>
       <path id="mb0fe129c21" d="M 0 0 
L -3.5 0 
" style="stroke: #000000; stroke-width: 0.8"/>
      </defs>
      <g>
       <use xlink:href="#mb0fe129c21" x="225" y="373.003373" style="stroke: #000000; stroke-width: 0.8"/>
      </g>
     </g>
     <g id="text_8">
      <!-- 641.0 -->
      <g transform="translate(166.469375 379.841967)scale(0.18 -0.18)">
       <defs>
        <path id="DejaVuSans-2e" d="M 684 794 
L 1344 794 
L 1344 0 
L 684 0 
L 684 794 
z
" transform="scale(0.015625)"/>
       </defs>
       <use xlink:href="#DejaVuSans-36"/>
       <use xlink:href="#DejaVuSans-34" x="63.623047"/>
       <use xlink:href="#DejaVuSans-31" x="127.246094"/>
       <use xlink:href="#DejaVuSans-2e" x="190.869141"/>
       <use xlink:href="#DejaVuSans-30" x="222.65625"/>
      </g>
     </g>
    </g>
    <g id="ytick_2">
     <g id="line2d_8">
      <g>
       <use xlink:href="#mb0fe129c21" x="225" y="331.601402" style="stroke: #000000; stroke-width: 0.8"/>
      </g>
     </g>
     <g id="text_9">
      <!-- 641.5 -->
      <g transform="translate(166.469375 338.439996)scale(0.18 -0.18)">
       <defs>
        <path id="DejaVuSans-35" d="M 691 4666 
L 3169 4666 
L 3169 4134 
L 1269 4134 
L 1269 2991 
Q 1406 3038 1543 3061 
Q 1681 3084 1819 3084 
Q 2600 3084 3056 2656 
Q 3513 2228 3513 1497 
Q 3513 744 3044 326 
Q 2575 -91 1722 -91 
Q 1428 -91 1123 -41 
Q 819 9 494 109 
L 494 744 
Q 775 591 1075 516 
Q 1375 441 1709 441 
Q 2250 441 2565 725 
Q 2881 1009 2881 1497 
Q 2881 1984 2565 2268 
Q 2250 2553 1709 2553 
Q 1456 2553 1204 2497 
Q 953 2441 691 2322 
L 691 4666 
z
" transform="scale(0.015625)"/>
       </defs>
       <use xlink:href="#DejaVuSans-36"/>
       <use xlink:href="#DejaVuSans-34" x="63.623047"/>
       <use xlink:href="#DejaVuSans-31" x="127.246094"/>
       <use xlink:href="#DejaVuSans-2e" x="190.869141"/>
       <use xlink:href="#DejaVuSans-35" x="222.65625"/>
      </g>
     </g>
    </g>
    <g id="ytick_3">
     <g id="line2d_9">
      <g>
       <use xlink:href="#mb0fe129c21" x="225" y="290.19943" style="stroke: #000000; stroke-width: 0.8"/>
      </g>
     </g>
     <g id="text_10">
      <!-- 642.0 -->
      <g transform="translate(166.469375 297.038024)scale(0.18 -0.18)">
       <use xlink:href="#DejaVuSans-36"/>
       <use xlink:href="#DejaVuSans-34" x="63.623047"/>
       <use xlink:href="#DejaVuSans-32" x="127.246094"/>
       <use xlink:href="#DejaVuSans-2e" x="190.869141"/>
       <use xlink:href="#DejaVuSans-30" x="222.65625"/>
      </g>
     </g>
    </g>
    <g id="ytick_4">
     <g id="line2d_10">
      <g>
       <use xlink:href="#mb0fe129c21" x="225" y="248.797459" style="stroke: #000000; stroke-width: 0.8"/>
      </g>
     </g>
     <g id="text_11">
      <!-- 642.5 -->
      <g transform="translate(166.469375 255.636053)scale(0.18 -0.18)">
       <use xlink:href="#DejaVuSans-36"/>
       <use xlink:href="#DejaVuSans-34" x="63.623047"/>
       <use xlink:href="#DejaVuSans-32" x="127.246094"/>
       <use xlink:href="#DejaVuSans-2e" x="190.869141"/>
       <use xlink:href="#DejaVuSans-35" x="222.65625"/>
      </g>
     </g>
    </g>
    <g id="ytick_5">
     <g id="line2d_11">
      <g>
       <use xlink:href="#mb0fe129c21" x="225" y="207.395487" style="stroke: #000000; stroke-width: 0.8"/>
      </g>
     </g>
     <g id="text_12">
      <!-- 643.0 -->
      <g transform="translate(166.469375 214.234081)scale(0.18 -0.18)">
       <defs>
        <path id="DejaVuSans-33" d="M 2597 2516 
Q 3050 2419 3304 2112 
Q 3559 1806 3559 1356 
Q 3559 666 3084 287 
Q 2609 -91 1734 -91 
Q 1441 -91 1130 -33 
Q 819 25 488 141 
L 488 750 
Q 750 597 1062 519 
Q 1375 441 1716 441 
Q 2309 441 2620 675 
Q 2931 909 2931 1356 
Q 2931 1769 2642 2001 
Q 2353 2234 1838 2234 
L 1294 2234 
L 1294 2753 
L 1863 2753 
Q 2328 2753 2575 2939 
Q 2822 3125 2822 3475 
Q 2822 3834 2567 4026 
Q 2313 4219 1838 4219 
Q 1578 4219 1281 4162 
Q 984 4106 628 3988 
L 628 4550 
Q 988 4650 1302 4700 
Q 1616 4750 1894 4750 
Q 2613 4750 3031 4423 
Q 3450 4097 3450 3541 
Q 3450 3153 3228 2886 
Q 3006 2619 2597 2516 
z
" transform="scale(0.015625)"/>
       </defs>
       <use xlink:href="#DejaVuSans-36"/>
       <use xlink:href="#DejaVuSans-34" x="63.623047"/>
       <use xlink:href="#DejaVuSans-33" x="127.246094"/>
       <use xlink:href="#DejaVuSans-2e" x="190.869141"/>
       <use xlink:href="#DejaVuSans-30" x="222.65625"/>
      </g>
     </g>
    </g>
    <g id="ytick_6">
     <g id="line2d_12">
      <g>
       <use xlink:href="#mb0fe129c21" x="225" y="165.993516" style="stroke: #000000; stroke-width: 0.8"/>
      </g>
     </g>
     <g id="text_13">
      <!-- 643.5 -->
      <g transform="translate(166.469375 172.83211)scale(0.18 -0.18)">
       <use xlink:href="#DejaVuSans-36"/>
       <use xlink:href="#DejaVuSans-34" x="63.623047"/>
       <use xlink:href="#DejaVuSans-33" x="127.246094"/>
       <use xlink:href="#DejaVuSans-2e" x="190.869141"/>
       <use xlink:href="#DejaVuSans-35" x="222.65625"/>
      </g>
     </g>
    </g>
    <g id="ytick_7">
     <g id="line2d_13">
      <g>
       <use xlink:href="#mb0fe129c21" x="225" y="124.591544" style="stroke: #000000; stroke-width: 0.8"/>
      </g>
     </g>
     <g id="text_14">
      <!-- 644.0 -->
      <g transform="translate(166.469375 131.430138)scale(0.18 -0.18)">
       <use xlink:href="#DejaVuSans-36"/>
       <use xlink:href="#DejaVuSans-34" x="63.623047"/>
       <use xlink:href="#DejaVuSans-34" x="127.246094"/>
       <use xlink:href="#DejaVuSans-2e" x="190.869141"/>
       <use xlink:href="#DejaVuSans-30" x="222.65625"/>
      </g>
     </g>
    </g>
    <g id="ytick_8">
     <g id="line2d_14">
      <g>
       <use xlink:href="#mb0fe129c21" x="225" y="83.189573" style="stroke: #000000; stroke-width: 0.8"/>
      </g>
     </g>
     <g id="text_15">
      <!-- 644.5 -->
      <g transform="translate(166.469375 90.028167)scale(0.18 -0.18)">
       <use xlink:href="#DejaVuSans-36"/>
       <use xlink:href="#DejaVuSans-34" x="63.623047"/>
       <use xlink:href="#DejaVuSans-34" x="127.246094"/>
       <use xlink:href="#DejaVuSans-2e" x="190.869141"/>
       <use xlink:href="#DejaVuSans-35" x="222.65625"/>
      </g>
     </g>
    </g>
    <g id="text_16">
     <!-- Sensor 2 (°R) -->
     <g transform="translate(157.894063 291.583281)rotate(-90)scale(0.22 -0.22)">
      <defs>
       <path id="DejaVuSans-53" d="M 3425 4513 
L 3425 3897 
Q 3066 4069 2747 4153 
Q 2428 4238 2131 4238 
Q 1616 4238 1336 4038 
Q 1056 3838 1056 3469 
Q 1056 3159 1242 3001 
Q 1428 2844 1947 2747 
L 2328 2669 
Q 3034 2534 3370 2195 
Q 3706 1856 3706 1288 
Q 3706 609 3251 259 
Q 2797 -91 1919 -91 
Q 1588 -91 1214 -16 
Q 841 59 441 206 
L 441 856 
Q 825 641 1194 531 
Q 1563 422 1919 422 
Q 2459 422 2753 634 
Q 3047 847 3047 1241 
Q 3047 1584 2836 1778 
Q 2625 1972 2144 2069 
L 1759 2144 
Q 1053 2284 737 2584 
Q 422 2884 422 3419 
Q 422 4038 858 4394 
Q 1294 4750 2059 4750 
Q 2388 4750 2728 4690 
Q 3069 4631 3425 4513 
z
" transform="scale(0.015625)"/>
       <path id="DejaVuSans-65" d="M 3597 1894 
L 3597 1613 
L 953 1613 
Q 991 1019 1311 708 
Q 1631 397 2203 397 
Q 2534 397 2845 478 
Q 3156 559 3463 722 
L 3463 178 
Q 3153 47 2828 -22 
Q 2503 -91 2169 -91 
Q 1331 -91 842 396 
Q 353 884 353 1716 
Q 353 2575 817 3079 
Q 1281 3584 2069 3584 
Q 2775 3584 3186 3129 
Q 3597 2675 3597 1894 
z
M 3022 2063 
Q 3016 2534 2758 2815 
Q 2500 3097 2075 3097 
Q 1594 3097 1305 2825 
Q 1016 2553 972 2059 
L 3022 2063 
z
" transform="scale(0.015625)"/>
       <path id="DejaVuSans-6e" d="M 3513 2113 
L 3513 0 
L 2938 0 
L 2938 2094 
Q 2938 2591 2744 2837 
Q 2550 3084 2163 3084 
Q 1697 3084 1428 2787 
Q 1159 2491 1159 1978 
L 1159 0 
L 581 0 
L 581 3500 
L 1159 3500 
L 1159 2956 
Q 1366 3272 1645 3428 
Q 1925 3584 2291 3584 
Q 2894 3584 3203 3211 
Q 3513 2838 3513 2113 
z
" transform="scale(0.015625)"/>
       <path id="DejaVuSans-72" d="M 2631 2963 
Q 2534 3019 2420 3045 
Q 2306 3072 2169 3072 
Q 1681 3072 1420 2755 
Q 1159 2438 1159 1844 
L 1159 0 
L 581 0 
L 581 3500 
L 1159 3500 
L 1159 2956 
Q 1341 3275 1631 3429 
Q 1922 3584 2338 3584 
Q 2397 3584 2469 3576 
Q 2541 3569 2628 3553 
L 2631 2963 
z
" transform="scale(0.015625)"/>
       <path id="DejaVuSans-20" transform="scale(0.015625)"/>
       <path id="DejaVuSans-28" d="M 1984 4856 
Q 1566 4138 1362 3434 
Q 1159 2731 1159 2009 
Q 1159 1288 1364 580 
Q 1569 -128 1984 -844 
L 1484 -844 
Q 1016 -109 783 600 
Q 550 1309 550 2009 
Q 550 2706 781 3412 
Q 1013 4119 1484 4856 
L 1984 4856 
z
" transform="scale(0.015625)"/>
       <path id="DejaVuSans-b0" d="M 1600 4347 
Q 1350 4347 1178 4173 
Q 1006 4000 1006 3750 
Q 1006 3503 1178 3333 
Q 1350 3163 1600 3163 
Q 1850 3163 2022 3333 
Q 2194 3503 2194 3750 
Q 2194 3997 2020 4172 
Q 1847 4347 1600 4347 
z
M 1600 4750 
Q 1800 4750 1984 4673 
Q 2169 4597 2303 4453 
Q 2447 4313 2519 4134 
Q 2591 3956 2591 3750 
Q 2591 3338 2302 3052 
Q 2013 2766 1594 2766 
Q 1172 2766 890 3047 
Q 609 3328 609 3750 
Q 609 4169 896 4459 
Q 1184 4750 1600 4750 
z
" transform="scale(0.015625)"/>
       <path id="DejaVuSans-52" d="M 2841 2188 
Q 3044 2119 3236 1894 
Q 3428 1669 3622 1275 
L 4263 0 
L 3584 0 
L 2988 1197 
Q 2756 1666 2539 1819 
Q 2322 1972 1947 1972 
L 1259 1972 
L 1259 0 
L 628 0 
L 628 4666 
L 2053 4666 
Q 2853 4666 3247 4331 
Q 3641 3997 3641 3322 
Q 3641 2881 3436 2590 
Q 3231 2300 2841 2188 
z
M 1259 4147 
L 1259 2491 
L 2053 2491 
Q 2509 2491 2742 2702 
Q 2975 2913 2975 3322 
Q 2975 3731 2742 3939 
Q 2509 4147 2053 4147 
L 1259 4147 
z
" transform="scale(0.015625)"/>
       <path id="DejaVuSans-29" d="M 513 4856 
L 1013 4856 
Q 1481 4119 1714 3412 
Q 1947 2706 1947 2009 
Q 1947 1309 1714 600 
Q 1481 -109 1013 -844 
L 513 -844 
Q 928 -128 1133 580 
Q 1338 1288 1338 2009 
Q 1338 2731 1133 3434 
Q 928 4138 513 4856 
z
" transform="scale(0.015625)"/>
      </defs>
      <use xlink:href="#DejaVuSans-53"/>
      <use xlink:href="#DejaVuSans-65" x="63.476562"/>
      <use xlink:href="#DejaVuSans-6e" x="125"/>
      <use xlink:href="#DejaVuSans-73" x="188.378906"/>
      <use xlink:href="#DejaVuSans-6f" x="240.478516"/>
      <use xlink:href="#DejaVuSans-72" x="301.660156"/>
      <use xlink:href="#DejaVuSans-20" x="342.773438"/>
      <use xlink:href="#DejaVuSans-32" x="374.560547"/>
      <use xlink:href="#DejaVuSans-20" x="438.183594"/>
      <use xlink:href="#DejaVuSans-28" x="469.970703"/>
      <use xlink:href="#DejaVuSans-b0" x="508.984375"/>
      <use xlink:href="#DejaVuSans-52" x="558.984375"/>
      <use xlink:href="#DejaVuSans-29" x="628.466797"/>
     </g>
    </g>
   </g>
   <g id="line2d_15">
    <path d="M 237.4 291.953327 
L 238.64 281.647917 
L 239.88 273.453967 
L 241.12 267.371475 
L 242.36 263.400443 
L 243.6 261.54087 
L 244.84 273.697788 
L 246.08 273.505564 
L 247.32 271.923417 
L 248.56 267.162191 
L 249.8 266.238039 
L 251.04 267.066079 
L 252.28 256.575115 
L 253.52 256.235027 
L 254.76 250.253921 
L 256 255.5031 
L 257.24 251.569912 
L 258.48 256.833877 
L 259.72 253.492147 
L 260.96 248.886177 
L 262.2 248.035958 
L 263.44 251.200252 
L 264.68 248.191216 
L 265.92 249.152333 
L 267.16 260.914929 
L 268.4 263.746528 
L 269.64 273.032399 
L 270.88 271.575936 
L 272.12 273.453812 
L 273.36 273.409452 
L 274.6 262.009124 
L 275.84 258.305126 
L 277.08 255.015148 
L 278.32 255.052114 
L 279.56 261.979551 
L 280.8 264.744611 
L 282.04 273.098938 
L 284.52 282.118653 
L 285.76 282.081687 
L 287 277.667941 
L 288.24 267.605783 
L 289.48 267.3692 
L 290.72 272.899321 
L 291.96 275.679168 
L 293.2 272.899321 
L 294.44 264.153154 
L 296.92 248.723527 
L 298.16 248.191216 
L 299.4 240.443133 
L 300.64 234.491599 
L 301.88 238.735301 
L 303.12 250.246528 
L 304.36 260.530482 
L 306.84 274.910274 
L 308.08 274.459288 
L 309.32 273.402059 
L 310.56 273.890011 
L 311.8 270.38563 
L 313.04 265.299102 
L 314.28 261.521172 
L 315.52 260.308686 
L 316.76 257.27747 
L 318 256.442037 
L 319.24 257.794995 
L 320.48 265.254743 
L 321.72 256.722979 
L 322.96 257.04828 
L 324.2 261.343735 
L 325.44 257.920679 
L 326.68 259.687656 
L 327.92 259.192311 
L 329.16 265.927525 
L 330.4 266.415476 
L 331.64 273.919584 
L 332.88 276.174513 
L 334.12 274.629332 
L 335.36 260.730099 
L 336.6 262.896309 
L 337.84 261.070186 
L 339.08 258.874403 
L 340.32 265.321281 
L 341.56 264.404524 
L 342.8 276.344556 
L 344.04 274.688478 
L 345.28 273.54253 
L 346.52 268.234206 
L 347.76 252.671501 
L 349 241.248992 
L 350.24 239.489409 
L 351.48 241.241599 
L 352.72 246.963943 
L 353.96 257.48448 
L 355.2 261.181084 
L 356.44 266.082782 
L 357.68 264.278839 
L 358.92 258.45299 
L 360.16 262.112629 
L 361.4 255.170405 
L 362.64 258.985301 
L 363.88 251.325936 
L 365.12 249.026648 
L 366.36 245.16 
L 367.6 244.893844 
L 368.84 239.341544 
L 370.08 227.601128 
L 371.32 227.549376 
L 372.56 228.784042 
L 373.8 235.282673 
L 375.04 239.097568 
L 376.28 249.32977 
L 377.52 246.091544 
L 378.76 246.919584 
L 380 251.688204 
L 381.24 250.239135 
L 382.48 237.138368 
L 383.72 229.064984 
L 384.96 221.73092 
L 386.2 218.130427 
L 387.44 210.167941 
L 388.68 209.169858 
L 389.92 216.932727 
L 391.16 226.159452 
L 392.4 233.759671 
L 393.64 236.302935 
L 394.88 236.073746 
L 396.12 226.595652 
L 397.36 230.011314 
L 398.6 224.562519 
L 399.84 228.717503 
L 401.08 228.569639 
L 402.32 230.329222 
L 403.56 228.865367 
L 404.8 230.292256 
L 406.04 231.312519 
L 407.28 228.931906 
L 408.52 229.789518 
L 409.76 224.133713 
L 411 221.087711 
L 412.24 224.059781 
L 413.48 229.523363 
L 414.72 232.783768 
L 415.96 227.586342 
L 417.2 219.291161 
L 418.44 221.642202 
L 419.68 223.106057 
L 420.92 223.815805 
L 422.16 221.70874 
L 423.4 212.164107 
L 424.64 214.278565 
L 425.88 223.564436 
L 427.12 229.456824 
L 428.36 227.889463 
L 429.6 223.7123 
L 430.84 217.524184 
L 432.08 216.888368 
L 433.32 208.881522 
L 434.56 208.312245 
L 435.8 203.321829 
L 437.04 193.769803 
L 438.28 202.301566 
L 439.52 204.312519 
L 440.76 210.840723 
L 442 208.992421 
L 443.24 205.820734 
L 444.48 199.351676 
L 445.72 206.06471 
L 446.96 200.068817 
L 448.2 207.232837 
L 449.44 200.179715 
L 450.68 190.701621 
L 451.92 194.575663 
L 453.16 190.686835 
L 454.4 194.494337 
L 455.64 182.354688 
L 456.88 175.996528 
L 458.12 167.886177 
L 459.36 164.241325 
L 460.6 152.330865 
L 461.84 155.63563 
L 463.08 152.22736 
L 464.32 144.967229 
L 465.56 145.972705 
L 466.8 147.303483 
L 468.04 141.780756 
L 469.28 139.377963 
L 470.52 156.034863 
L 471.76 174.968872 
L 473 200.67506 
L 474.24 229.161095 
L 475.48 269.712848 
L 476.72 304.608795 
L 477.96 316.393571 
L 479.2 321.975444 
L 480.44 321.62057 
L 481.68 300.313341 
L 482.92 292.750088 
L 484.16 285.903976 
L 485.4 288.787327 
L 486.64 287.360438 
L 487.88 292.239956 
L 489.12 298.649869 
L 490.36 299.477908 
L 491.6 298.124951 
L 494.08 292.994064 
L 495.32 286.421501 
L 496.56 281.578949 
L 497.8 277.386999 
L 499.04 279.87851 
L 500.28 280.758302 
L 501.52 285.349485 
L 502.76 283.212848 
L 504 282.791435 
L 505.24 289.667119 
L 506.48 288.129332 
L 507.72 292.934918 
L 508.96 298.997349 
L 510.2 293.615093 
L 511.44 293.58552 
L 512.68 305.185465 
L 513.92 314.626594 
L 515.16 315.617284 
L 516.4 314.43437 
L 517.64 312.179441 
L 518.88 307.277744 
L 520.12 296.017886 
L 522.6 283.249814 
L 523.84 273.646035 
L 525.08 274.791982 
L 526.32 278.828675 
L 527.56 283.28678 
L 528.8 275.612629 
L 530.04 272.677525 
L 531.28 269.202716 
L 532.52 269.638916 
L 533.76 267.901512 
L 535 277.431358 
L 536.24 282.27391 
L 537.48 293.489409 
L 538.72 298.879058 
L 539.96 299.751457 
L 541.2 297.311698 
L 543.68 273.793899 
L 544.92 265.04034 
L 546.16 264.2123 
L 547.4 264.818543 
L 548.64 279.235301 
L 549.88 284.735849 
L 551.12 297.274732 
L 552.36 300.72736 
L 553.6 292.905345 
L 554.84 288.136725 
L 556.08 284.358795 
L 557.32 268.19724 
L 558.56 266.127141 
L 559.8 258.223801 
L 561.04 262.741051 
L 563.52 281.423691 
L 564.76 283.944775 
L 566 283.996528 
L 567.24 284.743242 
L 568.48 296.779387 
L 569.72 300.978729 
L 570.96 305.70299 
L 572.2 308.009671 
L 573.44 304.017338 
L 574.68 310.49379 
L 575.92 308.985575 
L 577.16 303.056221 
L 578.4 290.192037 
L 579.64 284.181358 
L 580.88 285.47517 
L 582.12 283.249814 
L 583.36 279.982015 
L 584.6 283.745159 
L 585.84 276.270624 
L 587.08 272.300471 
L 588.32 269.742421 
L 589.56 268.17506 
L 590.8 267.724074 
L 592.04 271.058412 
L 593.28 279.057864 
L 595.76 285.793078 
L 597 284.410548 
L 598.24 285.497349 
L 599.48 286.251457 
L 600.72 279.893297 
L 601.96 274.673691 
L 603.2 275.989682 
L 604.44 274.821555 
L 605.68 275.967503 
L 606.92 273.860438 
L 608.16 270.082508 
L 609.4 270.829222 
L 610.64 269.077032 
L 611.88 268.330318 
L 614.36 277.224348 
L 615.6 274.851128 
L 616.84 275.812245 
L 618.08 276.35195 
L 619.32 277.645761 
L 620.56 276.551566 
L 621.8 281.164929 
L 623.04 276.684644 
L 624.28 274.954633 
L 625.52 265.166024 
L 626.76 265.883165 
L 628 275.028565 
L 629.24 274.577579 
L 630.48 280.403428 
L 631.72 292.395214 
L 632.96 297.895761 
L 634.2 294.029113 
L 635.44 288.580318 
L 636.68 279.582782 
L 637.92 271.856878 
L 639.16 262.386177 
L 640.4 257.395761 
L 641.64 255.155619 
L 642.88 253.211205 
L 645.36 268.559507 
L 646.6 268.685192 
L 647.84 270.163834 
L 649.08 274.015696 
L 650.32 281.475444 
L 651.56 277.446145 
L 652.8 279.368379 
L 654.04 272.662738 
L 656.52 256.10195 
L 657.76 257.129606 
L 659 253.994885 
L 660.24 256.161095 
L 661.48 261.624677 
L 662.72 263.82046 
L 663.96 268.818269 
L 666.44 283.050197 
L 667.68 281.401512 
L 668.92 288.365915 
L 670.16 287.833604 
L 671.4 282.517886 
L 672.64 271.598116 
L 673.88 268.389463 
L 675.12 267.043899 
L 676.36 263.140285 
L 677.6 260.752278 
L 678.84 264.892475 
L 680.08 261.757755 
L 681.32 268.544721 
L 682.56 277.571829 
L 683.8 274.910274 
L 685.04 265.860986 
L 686.28 261.750361 
L 687.52 264.485849 
L 688.76 263.436013 
L 690 259.805947 
L 691.24 254.12057 
L 692.48 256.07977 
L 693.72 259.665476 
L 694.96 263.702169 
L 696.2 262.800197 
L 697.44 263.214217 
L 701.16 250.091271 
L 702.4 241.729551 
L 703.64 234.558138 
L 704.88 228.673143 
L 706.12 232.783768 
L 707.36 245.13782 
L 708.6 251.924786 
L 709.84 251.961752 
L 711.08 249.573746 
L 712.32 249.74379 
L 713.56 240.347021 
L 714.8 235.009124 
L 716.04 223.386999 
L 717.28 219.33552 
L 718.52 216.718324 
L 719.76 227.09839 
L 721 244.679441 
L 722.24 250.956276 
L 723.48 252.974622 
L 724.72 255.946692 
L 725.96 257.040887 
L 727.2 254.179715 
L 728.44 253.218598 
L 729.68 244.420679 
L 730.92 239.201073 
L 732.16 233.264326 
L 733.4 241.352497 
L 734.64 240.59839 
L 735.88 244.95299 
L 737.12 243.17862 
L 739.6 231.645214 
L 740.84 232.266243 
L 742.08 225.834151 
L 743.32 216.311698 
L 744.56 207.809507 
L 745.8 203.307043 
L 747.04 208.689299 
L 748.28 204.793078 
L 749.52 208.955455 
L 750.76 204.741325 
L 752 210.175334 
L 753.24 219.261588 
L 754.48 227.238861 
L 755.72 230.809781 
L 756.96 233.996254 
L 758.2 225.353593 
L 759.44 222.566353 
L 760.68 222.285411 
L 761.92 213.3692 
L 763.16 203.499266 
L 764.4 197.141106 
L 765.64 204.164655 
L 766.88 213.827579 
L 769.36 207.299376 
L 770.6 205.05184 
L 771.84 198.989409 
L 773.08 202.915203 
L 774.32 206.308686 
L 775.56 211.816627 
L 778.04 199.928346 
L 779.28 205.887273 
L 780.52 210.611533 
L 781.76 206.855783 
L 783 205.939025 
L 784.24 199.773089 
L 785.48 199.773089 
L 786.72 199.906166 
L 787.96 201.843187 
L 789.2 206.234754 
L 790.44 205.273636 
L 791.68 197.70299 
L 792.92 200.342366 
L 794.16 204.45299 
L 795.4 202.841271 
L 796.64 199.640011 
L 797.88 191.049102 
L 799.12 189.851402 
L 800.36 188.306221 
L 801.6 189.348664 
L 802.84 199.558686 
L 804.08 201.429168 
L 805.32 197.111533 
L 806.56 191.204359 
L 807.8 189.422596 
L 809.04 181.82977 
L 810.28 176.107426 
L 811.52 164.396583 
L 812.76 159.295268 
L 814 155.265969 
L 815.24 153.824294 
L 816.48 158.334151 
L 817.72 152.086889 
L 818.96 152.604414 
L 820.2 146.394118 
L 821.44 146.748992 
L 822.68 149.218324 
L 823.92 136.590723 
L 825.16 138.061972 
L 826.4 146.127963 
L 828.88 182.931358 
L 830.12 211.964491 
L 831.36 234.011041 
L 832.6 249.736396 
L 833.84 262.282673 
L 835.08 269.357974 
L 836.32 264.478456 
L 837.56 254.09839 
L 838.8 256.944775 
L 840.04 248.782673 
L 841.28 247.259671 
L 842.52 251.998719 
L 843.76 262.445323 
L 845 260.234754 
L 846.24 256.456824 
L 847.48 260.715312 
L 848.72 261.129332 
L 849.96 259.828127 
L 851.2 264.877689 
L 852.44 266.201073 
L 854.92 263.214217 
L 856.16 277.520077 
L 857.4 276.034042 
L 858.64 277.653154 
L 859.88 283.279387 
L 861.12 290.332508 
L 862.36 294.324841 
L 863.6 289.844556 
L 864.84 291.463669 
L 866.08 284.491873 
L 867.32 276.019255 
L 868.56 264.692859 
L 869.8 265.631796 
L 871.04 264.00529 
L 872.28 274.629332 
L 873.52 289.134808 
L 874.76 295.167667 
L 876 295.38207 
L 877.24 285.534315 
L 878.48 283.2646 
L 879.72 271.250635 
L 882.2 251.902607 
L 883.44 251.547733 
L 884.68 258.489956 
L 885.92 264.515422 
L 887.16 272.485301 
L 888.4 270.097295 
L 889.64 268.722158 
L 890.88 269.143571 
L 892.12 272.884535 
L 893.36 273.084151 
L 894.6 268.130701 
L 895.84 261.676429 
L 897.08 256.479003 
L 898.32 260.811424 
L 899.56 257.743242 
L 900.8 255.414381 
L 902.04 258.253373 
L 903.28 257.87632 
L 904.52 268.61126 
L 905.76 274.592366 
L 907 282.909726 
L 908.24 278.12632 
L 909.48 276.056221 
L 910.72 274.511041 
L 911.96 270.969693 
L 913.2 263.058959 
L 914.44 259.842913 
L 915.68 252.826758 
L 916.92 244.58333 
L 918.16 249.869474 
L 919.4 245.507481 
L 920.64 247.111807 
L 921.88 236.953538 
L 923.12 247.570186 
L 924.36 251.532946 
L 925.6 251.081961 
L 926.84 256.708193 
L 928.08 261.210657 
L 929.32 268.396857 
L 930.56 274.185739 
L 931.8 276.573746 
L 933.04 271.021446 
L 934.28 267.435739 
L 935.52 260.988861 
L 936.76 266.99954 
L 938 263.990504 
L 939.24 267.642749 
L 940.48 267.080865 
L 941.72 270.770077 
L 942.96 274.991599 
L 944.2 263.82046 
L 945.44 257.676703 
L 946.68 248.671774 
L 947.92 241.138094 
L 949.16 238.247349 
L 950.4 237.959014 
L 951.64 240.213943 
L 952.88 243.356057 
L 956.6 269.047459 
L 957.84 263.960931 
L 959.08 265.20299 
L 960.32 254.46805 
L 961.56 251.895214 
L 962.8 249.056221 
L 964.04 242.010493 
L 965.28 237.559781 
L 966.52 236.879606 
L 967.76 245.596199 
L 969 245.248719 
L 971.48 251.385082 
L 972.72 254.556769 
L 973.96 255.384808 
L 975.2 258.386451 
L 976.44 253.558686 
L 977.68 257.994611 
L 978.92 258.66 
L 980.16 259.791161 
L 981.4 252.649321 
L 982.64 249.972979 
L 983.88 243.770077 
L 985.12 242.97161 
L 986.36 237.360164 
L 987.6 239.807317 
L 988.84 236.325115 
L 990.08 236.184644 
L 991.32 244.95299 
L 992.56 247.281851 
L 993.8 244.132344 
L 995.04 247.998992 
L 996.28 252.368379 
L 998.76 239.962574 
L 1000 229.005838 
L 1001.24 223.704907 
L 1002.48 220.193133 
L 1003.72 227.364545 
L 1004.96 224.148499 
L 1006.2 217.989956 
L 1007.44 216.917941 
L 1008.68 219.623855 
L 1009.92 214.685192 
L 1011.16 213.110438 
L 1012.4 203.284863 
L 1013.64 195.817722 
L 1014.88 192.926977 
L 1016.12 201.029934 
L 1017.36 203.787601 
L 1019.84 194.383439 
L 1021.08 196.845378 
L 1022.32 205.761588 
L 1023.56 207.572924 
L 1024.8 208.62276 
L 1026.04 206.234754 
L 1027.28 206.759671 
L 1028.52 204.889189 
L 1029.76 211.077306 
L 1031 206.375225 
L 1032.24 205.199704 
L 1033.48 195.913834 
L 1034.72 191.707097 
L 1035.96 195.492421 
L 1038.44 177.238587 
L 1039.68 168.507207 
L 1040.92 168.034042 
L 1042.16 165.904797 
L 1043.4 166.998992 
L 1044.64 163.901238 
L 1045.88 155.029387 
L 1047.12 151.377141 
L 1048.36 155.421227 
L 1049.6 172.211205 
L 1050.84 183.870296 
L 1053.32 219.638642 
L 1054.56 241.182453 
L 1055.8 258.881796 
L 1057.04 271.465038 
L 1058.28 269.505838 
L 1060.76 259.761588 
L 1062 259.014874 
L 1063.24 259.317996 
L 1064.48 250.682727 
L 1065.72 249.625498 
L 1066.96 250.216955 
L 1068.2 257.477087 
L 1069.44 262.193954 
L 1070.68 260.981468 
L 1071.92 256.752552 
L 1073.16 254.726813 
L 1074.4 249.74379 
L 1075.64 245.862355 
L 1076.88 243.444775 
L 1078.12 240.494885 
L 1079.36 247.681084 
L 1080.6 255.754469 
L 1081.84 266.016243 
L 1083.08 263.265969 
L 1084.32 260.833604 
L 1085.56 265.003373 
L 1086.8 258.963122 
L 1088.04 256.220241 
L 1089.28 249.159726 
L 1090.52 253.824841 
L 1091.76 255.421774 
L 1093 255.89494 
L 1094.24 258.349485 
L 1095.48 258.349485 
L 1096.72 255.11126 
L 1097.96 249.137547 
L 1099.2 248.790066 
L 1100.44 250.73448 
L 1101.68 257.787601 
L 1102.92 253.68437 
L 1104.16 258.408631 
L 1105.4 262.149595 
L 1106.64 254.978182 
L 1107.88 258.571281 
L 1109.12 259.303209 
L 1110.36 255.761862 
L 1111.6 250.143023 
L 1112.84 245.810602 
L 1114.08 257.366188 
L 1115.32 256.819091 
L 1116.56 252.671501 
L 1117.8 252.353593 
L 1119.04 252.945049 
L 1120.28 249.825115 
L 1121.52 254.808138 
L 1122.76 256.220241 
L 1124 253.12988 
L 1125.24 252.383165 
L 1127.72 245.145214 
L 1128.96 238.934918 
L 1130.2 240.827579 
L 1131.44 235.770624 
L 1132.68 237.448883 
L 1133.92 241.352497 
L 1135.16 240.901512 
L 1136.4 242.37276 
L 1137.64 245.145214 
L 1138.88 243.075115 
L 1140.12 249.366736 
L 1141.36 248.36126 
L 1142.6 249.32977 
L 1143.84 257.66931 
L 1145.08 253.218598 
L 1146.32 256.072377 
L 1147.56 251.459014 
L 1148.8 252.523636 
L 1150.04 249.034042 
L 1151.28 243.851402 
L 1152.52 245.359617 
L 1153.76 253.728729 
L 1155 247.902881 
L 1156.24 254.46805 
L 1157.48 257.25529 
L 1158.72 246.424239 
L 1159.96 242.668488 
L 1161.2 239.326758 
L 1162.44 242.882892 
L 1163.68 236.532125 
L 1166.16 251.532946 
L 1167.4 249.366736 
L 1168.64 244.391106 
L 1169.88 246.816079 
L 1171.12 238.727908 
L 1172.36 235.060876 
L 1173.6 229.397678 
L 1174.84 231.733932 
L 1176.08 232.399321 
L 1177.32 238.838806 
L 1179.8 257.654524 
L 1181.04 256.316353 
L 1182.28 252.567996 
L 1183.52 250.290887 
L 1184.76 255.702716 
L 1186 259.754195 
L 1187.24 261.380701 
L 1188.48 258.822651 
L 1189.72 256.582508 
L 1190.96 250.837985 
L 1193.44 240.798007 
L 1194.68 234.314162 
L 1195.92 234.232837 
L 1197.16 231.423417 
L 1199.64 236.399047 
L 1200.88 240.406166 
L 1202.12 232.909452 
L 1203.36 241.219419 
L 1204.6 238.727908 
L 1205.84 242.343187 
L 1207.08 246.601676 
L 1208.32 253.566079 
L 1209.56 261.942585 
L 1210.8 257.639737 
L 1212.04 254.386725 
L 1213.28 248.413012 
L 1214.52 236.61345 
L 1215.76 228.791435 
L 1217 230.624951 
L 1218.24 225.671501 
L 1219.48 230.284863 
L 1220.72 232.732015 
L 1221.96 238.166024 
L 1223.2 246.12851 
L 1224.44 251.155893 
L 1225.68 249.411095 
L 1226.92 246.291161 
L 1228.16 240.694502 
L 1229.4 234.107152 
L 1230.64 226.27035 
L 1231.88 227.571555 
L 1234.36 219.742147 
L 1235.6 222.314984 
L 1236.84 222.5146 
L 1238.08 220.710657 
L 1239.32 218.233932 
L 1240.56 220.540613 
L 1241.8 219.860438 
L 1243.04 218.256112 
L 1244.28 217.679441 
L 1245.52 219.93437 
L 1246.76 217.058412 
L 1248 216.097295 
L 1249.24 211.809233 
L 1250.48 202.86345 
L 1251.72 194.878784 
L 1252.96 193.94724 
L 1256.68 204.416024 
L 1259.16 190.213669 
L 1260.4 190.198883 
L 1261.64 187.810876 
L 1262.88 187.441216 
L 1264.12 181.386177 
L 1265.36 183.83333 
L 1266.6 187.655619 
L 1267.84 192.875225 
L 1269.08 192.483384 
L 1270.32 188.032673 
L 1271.56 186.132618 
L 1272.8 171.124403 
L 1274.04 162.208193 
L 1275.28 157.668762 
L 1276.52 157.062519 
L 1277.76 153.617284 
L 1279 162.282125 
L 1280.24 145.462574 
L 1281.48 146.068817 
L 1282.72 151.709836 
L 1283.96 169.246528 
L 1285.2 193.488861 
L 1286.44 208.85195 
L 1287.68 234.314162 
L 1288.92 255.414381 
L 1291.4 277.379606 
L 1292.64 281.948609 
L 1293.88 264.737218 
L 1295.12 270.245159 
L 1296.36 271.494611 
L 1298.84 281.808138 
L 1300.08 294.724074 
L 1301.32 304.091271 
L 1302.56 305.584699 
L 1303.8 300.734754 
L 1305.04 299.640559 
L 1306.28 295.515148 
L 1307.52 285.748719 
L 1310 280.447788 
L 1311.24 275.080318 
L 1312.48 278.49598 
L 1313.72 284.698883 
L 1314.96 292.609617 
L 1316.2 298.368927 
L 1317.44 291.611533 
L 1318.68 286.998171 
L 1319.92 277.793625 
L 1321.16 266.541161 
L 1322.4 271.413286 
L 1323.64 266.023636 
L 1324.88 272.389189 
L 1326.12 287.567448 
L 1327.36 291.293625 
L 1328.6 305.865641 
L 1329.84 308.67506 
L 1331.08 293.903428 
L 1332.32 284.011314 
L 1333.56 271.265422 
L 1334.8 270.954907 
L 1336.04 271.753373 
L 1337.28 265.816627 
L 1338.52 270.089901 
L 1339.76 281.187108 
L 1341 288.121939 
L 1342.24 300.986123 
L 1343.48 297.274732 
L 1344.72 290.384261 
L 1345.96 288.092366 
L 1347.2 286.776375 
L 1348.44 289.371391 
L 1349.68 284.48448 
L 1350.92 283.501183 
L 1352.16 276.965586 
L 1353.4 280.307317 
L 1354.64 282.488313 
L 1355.88 278.954359 
L 1357.12 276.174513 
L 1358.36 279.619748 
L 1359.6 275.405619 
L 1360.84 274.53322 
L 1362.08 272.751457 
L 1363.32 276.167119 
L 1364.56 282.384808 
L 1365.8 281.238861 
L 1367.04 288.587711 
L 1368.28 290.391654 
L 1370.76 295.58908 
L 1372 297.319091 
L 1373.24 291.766791 
L 1374.48 292.498719 
L 1375.72 278.547733 
L 1378.2 265.010767 
L 1379.44 262.778018 
L 1380.68 263.606057 
L 1381.92 256.641654 
L 1383.16 261.543352 
L 1384.4 260.197788 
L 1385.64 261.084973 
L 1386.88 262.866736 
L 1388.12 265.461752 
L 1390.6 252.841544 
L 1391.84 257.173965 
L 1393.08 259.110986 
L 1394.32 263.384261 
L 1396.8 273.616462 
L 1398.04 276.12276 
L 1399.28 271.213669 
L 1400.52 268.736944 
L 1401.76 272.256112 
L 1403 272.596199 
L 1404.24 275.597842 
L 1405.48 282.251731 
L 1406.72 271.346747 
L 1407.96 276.72161 
L 1409.2 284.011314 
L 1410.44 283.597295 
L 1411.68 279.641928 
L 1412.92 273.276375 
L 1414.16 265.905345 
L 1415.4 264.04965 
L 1416.64 267.768434 
L 1417.88 276.388916 
L 1419.12 277.520077 
L 1420.36 270.267338 
L 1421.6 282.421774 
L 1422.84 278.008028 
L 1424.08 280.972705 
L 1425.32 276.019255 
L 1426.56 276.204085 
L 1427.8 266.925608 
L 1429.04 268.049376 
L 1431.52 269.675882 
L 1432.76 280.861807 
L 1434 277.845378 
L 1435.24 281.734206 
L 1436.48 281.497623 
L 1437.72 290.672596 
L 1438.96 289.718872 
L 1440.2 291.352771 
L 1441.44 278.532946 
L 1442.68 271.916024 
L 1443.92 256.382892 
L 1445.16 243.770077 
L 1446.4 249.455455 
L 1447.64 244.53897 
L 1448.88 259.805947 
L 1450.12 273.032399 
L 1452.6 306.257481 
L 1453.84 304.261314 
L 1455.08 299.004743 
L 1456.32 296.025279 
L 1457.56 285.512136 
L 1458.8 271.649869 
L 1460.04 272.071281 
L 1461.28 260.086889 
L 1462.52 260.604414 
L 1463.76 258.807864 
L 1465 259.805947 
L 1466.24 261.373308 
L 1467.48 255.991051 
L 1468.72 269.964217 
L 1469.96 273.54253 
L 1471.2 276.485027 
L 1472.44 277.94149 
L 1473.68 278.547733 
L 1474.92 270.673965 
L 1476.16 275.33908 
L 1477.4 275.206002 
L 1478.64 267.938478 
L 1479.88 269.069639 
L 1482.36 281.290613 
L 1483.6 276.921227 
L 1484.84 274.318817 
L 1486.08 266.689025 
L 1487.32 256.486396 
L 1488.56 252.420131 
L 1489.8 253.558686 
L 1492.28 238.166024 
L 1494.76 247.511041 
L 1496 247.791982 
L 1497.24 252.102223 
L 1498.48 257.654524 
L 1499.72 259.347568 
L 1500.96 265.188204 
L 1502.2 273.756933 
L 1503.44 268.40425 
L 1504.68 259.421501 
L 1505.92 257.913286 
L 1507.16 262.282673 
L 1508.4 258.467777 
L 1509.64 251.902607 
L 1510.88 260.744885 
L 1512.12 263.776101 
L 1513.36 265.121665 
L 1514.6 256.161095 
L 1515.84 250.468324 
L 1518.32 237.522815 
L 1519.56 236.206824 
L 1522.04 232.872486 
L 1523.28 234.291982 
L 1524.52 249.440668 
L 1525.76 252.649321 
L 1527 250.046911 
L 1528.24 239.933001 
L 1529.48 247.252278 
L 1530.72 256.020624 
L 1531.96 247.377963 
L 1533.2 240.997623 
L 1534.44 236.302935 
L 1535.68 233.66356 
L 1536.92 238.328675 
L 1538.16 235.859343 
L 1539.4 233.937108 
L 1540.64 224.429441 
L 1541.88 223.653154 
L 1543.12 218.174786 
L 1544.36 213.3692 
L 1545.6 210.907262 
L 1546.84 204.135082 
L 1548.08 206.966681 
L 1549.32 216.060329 
L 1550.56 223.586616 
L 1551.8 222.034042 
L 1553.04 228.281303 
L 1554.28 226.248171 
L 1555.52 227.061424 
L 1556.76 225.242694 
L 1558 227.941216 
L 1559.24 231.977908 
L 1560.48 226.750909 
L 1561.72 231.260767 
L 1562.96 238.424786 
L 1564.2 235.127415 
L 1565.44 224.170679 
L 1566.68 217.198883 
L 1567.92 216.296911 
L 1569.16 203.595378 
L 1570.4 207.942585 
L 1571.64 206.959288 
L 1572.88 207.092366 
L 1574.12 202.323746 
L 1575.36 199.52172 
L 1576.6 202.878237 
L 1577.84 195.300197 
L 1579.08 186.864545 
L 1580.32 187.707371 
L 1581.56 189.503921 
L 1582.8 183.167941 
L 1584.04 195.093187 
L 1585.28 198.856331 
L 1586.52 200.808138 
L 1587.76 195.056221 
L 1589 188.16575 
L 1590.24 187.456002 
L 1591.48 181.349211 
L 1592.72 176.543625 
L 1593.96 169.823198 
L 1595.2 164.832782 
L 1596.44 166.584973 
L 1597.68 165.305947 
L 1598.92 165.032399 
L 1600.16 168.32977 
L 1601.4 165.579496 
L 1602.64 163.472432 
L 1603.88 170.451621 
L 1605.12 175.44943 
L 1606.36 172.876594 
L 1607.6 168.477634 
L 1608.84 163.006659 
L 1610.08 161.017886 
L 1611.32 157.365641 
L 1612.56 152.515696 
L 1613.8 144.316627 
L 1615.04 134.845926 
L 1616.28 145.640011 
L 1617.52 160.101128 
L 1618.76 185.578127 
L 1620 204.534315 
L 1621.24 225.198335 
L 1621.24 225.198335 
" clip-path="url(#pa8e368e929)" style="fill: none; stroke: #1f77b4; stroke-width: 1.5; stroke-linecap: square"/>
   </g>
   <g id="patch_3">
    <path d="M 225 384.48 
L 225 51.84 
" style="fill: none; stroke: #000000; stroke-width: 0.8; stroke-linejoin: miter; stroke-linecap: square"/>
   </g>
   <g id="patch_4">
    <path d="M 1620 384.48 
L 1620 51.84 
" style="fill: none; stroke: #000000; stroke-width: 0.8; stroke-linejoin: miter; stroke-linecap: square"/>
   </g>
   <g id="patch_5">
    <path d="M 225 384.48 
L 1620 384.48 
" style="fill: none; stroke: #000000; stroke-width: 0.8; stroke-linejoin: miter; stroke-linecap: square"/>
   </g>
   <g id="patch_6">
    <path d="M 225 51.84 
L 1620 51.84 
" style="fill: none; stroke: #000000; stroke-width: 0.8; stroke-linejoin: miter; stroke-linecap: square"/>
   </g>
   <g id="legend_1">
    <g id="patch_7">
     <path d="M 1395.666562 92.660625 
L 1607.4 92.660625 
Q 1611 92.660625 1611 89.060625 
L 1611 64.44 
Q 1611 60.84 1607.4 60.84 
L 1395.666562 60.84 
Q 1392.066562 60.84 1392.066562 64.44 
L 1392.066562 89.060625 
Q 1392.066562 92.660625 1395.666562 92.660625 
z
" style="fill: #ffffff; opacity: 0.8; stroke: #cccccc; stroke-linejoin: miter"/>
    </g>
    <g id="line2d_16">
     <path d="M 1399.266562 75.417187 
L 1417.266562 75.417187 
L 1435.266562 75.417187 
" style="fill: none; stroke: #1f77b4; stroke-width: 1.5; stroke-linecap: square"/>
    </g>
    <g id="text_17">
     <!-- Sensor 2 com SG -->
     <g transform="translate(1449.666563 81.717187)scale(0.18 -0.18)">
      <defs>
       <path id="DejaVuSans-6d" d="M 3328 2828 
Q 3544 3216 3844 3400 
Q 4144 3584 4550 3584 
Q 5097 3584 5394 3201 
Q 5691 2819 5691 2113 
L 5691 0 
L 5113 0 
L 5113 2094 
Q 5113 2597 4934 2840 
Q 4756 3084 4391 3084 
Q 3944 3084 3684 2787 
Q 3425 2491 3425 1978 
L 3425 0 
L 2847 0 
L 2847 2094 
Q 2847 2600 2669 2842 
Q 2491 3084 2119 3084 
Q 1678 3084 1418 2786 
Q 1159 2488 1159 1978 
L 1159 0 
L 581 0 
L 581 3500 
L 1159 3500 
L 1159 2956 
Q 1356 3278 1631 3431 
Q 1906 3584 2284 3584 
Q 2666 3584 2933 3390 
Q 3200 3197 3328 2828 
z
" transform="scale(0.015625)"/>
       <path id="DejaVuSans-47" d="M 3809 666 
L 3809 1919 
L 2778 1919 
L 2778 2438 
L 4434 2438 
L 4434 434 
Q 4069 175 3628 42 
Q 3188 -91 2688 -91 
Q 1594 -91 976 548 
Q 359 1188 359 2328 
Q 359 3472 976 4111 
Q 1594 4750 2688 4750 
Q 3144 4750 3555 4637 
Q 3966 4525 4313 4306 
L 4313 3634 
Q 3963 3931 3569 4081 
Q 3175 4231 2741 4231 
Q 1884 4231 1454 3753 
Q 1025 3275 1025 2328 
Q 1025 1384 1454 906 
Q 1884 428 2741 428 
Q 3075 428 3337 486 
Q 3600 544 3809 666 
z
" transform="scale(0.015625)"/>
      </defs>
      <use xlink:href="#DejaVuSans-53"/>
      <use xlink:href="#DejaVuSans-65" x="63.476562"/>
      <use xlink:href="#DejaVuSans-6e" x="125"/>
      <use xlink:href="#DejaVuSans-73" x="188.378906"/>
      <use xlink:href="#DejaVuSans-6f" x="240.478516"/>
      <use xlink:href="#DejaVuSans-72" x="301.660156"/>
      <use xlink:href="#DejaVuSans-20" x="342.773438"/>
      <use xlink:href="#DejaVuSans-32" x="374.560547"/>
      <use xlink:href="#DejaVuSans-20" x="438.183594"/>
      <use xlink:href="#DejaVuSans-63" x="469.970703"/>
      <use xlink:href="#DejaVuSans-6f" x="524.951172"/>
      <use xlink:href="#DejaVuSans-6d" x="586.132812"/>
      <use xlink:href="#DejaVuSans-20" x="683.544922"/>
      <use xlink:href="#DejaVuSans-53" x="715.332031"/>
      <use xlink:href="#DejaVuSans-47" x="778.808594"/>
     </g>
    </g>
   </g>
  </g>
 </g>
 <defs>
  <clipPath id="pa8e368e929">
   <rect x="225" y="51.84" width="1395" height="332.64"/>
  </clipPath>
 </defs>
</svg>
